<?xml version="1.0" encoding="UTF-8"?>
<svg xmlns="http://www.w3.org/2000/svg" xmlns:xlink="http://www.w3.org/1999/xlink" width="180px" height="180px" viewBox="0 0 180 182" version="1.1">
<g id="surface1">
<path style="fill-rule:evenodd;fill:rgb(0%,0%,0%);fill-opacity:1;stroke-width:1;stroke-linecap:butt;stroke-linejoin:miter;stroke:rgb(0%,0%,0%);stroke-opacity:1;stroke-miterlimit:4;" d="M 74.646149 174.441329 C 124.72737 196.436708 206.915277 193.824042 262.059976 152.217343 C 339.151842 208.699907 413.345641 202.903055 484.087807 152.217343 C 531.238398 186.312629 603.852912 200.86191 671.990073 175.159812 L 702.550038 217.599299 C 622.885729 324.049092 652.37113 425.796087 734.526474 515.328871 L 700.02644 550.322261 C 707.841455 779.893919 530.033583 834.710909 427.933669 840.393457 L 373.033189 885.314975 L 318.539741 841.062952 C 136.254517 825.321642 40.015864 729.15922 45.974813 550.91011 L 10.497901 515.067604 C 79.807315 440.100431 131.874852 337.667612 42.848807 217.58297 Z M 74.646149 174.441329 " transform="matrix(0.239923,0,0,0.239219,0.504752,-32.675043)"/>
<path style=" stroke:none;fill-rule:evenodd;fill:rgb(0%,30.19608%,59.607846%);fill-opacity:1;" d="M 19.410156 98.007812 L 160.136719 98.007812 C 163.835938 136.832031 139.09375 157.804688 101.472656 159.867188 L 77.566406 159.929688 C 41.570312 157.347656 14.753906 138.398438 19.410156 98.007812 Z M 19.410156 98.007812 "/>
<path style=" stroke:none;fill-rule:nonzero;fill:rgb(64.705884%,0%,26.666668%);fill-opacity:1;" d="M 80.074219 98.472656 L 100.007812 98.472656 L 100.007812 160.515625 L 80.074219 160.515625 Z M 80.074219 98.472656 "/>
<path style=" stroke:none;fill-rule:nonzero;fill:rgb(64.705884%,0%,26.666668%);fill-opacity:1;" d="M 40.402344 98.472656 L 60.335938 98.472656 L 60.335938 153.921875 L 40.402344 153.921875 Z M 40.402344 98.472656 "/>
<path style=" stroke:none;fill-rule:nonzero;fill:rgb(64.705884%,0%,26.666668%);fill-opacity:1;" d="M 47.351562 151.082031 L 60.335938 151.082031 L 60.335938 156.792969 L 47.351562 156.792969 Z M 47.351562 151.082031 "/>
<path style=" stroke:none;fill-rule:nonzero;fill:rgb(64.705884%,0%,26.666668%);fill-opacity:1;" d="M 119.523438 98.472656 L 139.457031 98.472656 L 139.457031 153.921875 L 119.523438 153.921875 Z M 119.523438 98.472656 "/>
<path style=" stroke:none;fill-rule:nonzero;fill:rgb(64.705884%,0%,26.666668%);fill-opacity:1;" d="M 119.523438 151.082031 L 132.507812 151.082031 L 132.507812 156.792969 L 119.523438 156.792969 Z M 119.523438 151.082031 "/>
<path style=" stroke:none;fill-rule:evenodd;fill:rgb(100%,100%,100%);fill-opacity:1;" d="M 89.394531 21.886719 L 89.394531 76.996094 L 22.21875 77.480469 L 29.140625 50.953125 L 20.515625 19.222656 L 63.035156 13.769531 Z M 89.394531 21.886719 "/>
<path style=" stroke:none;fill-rule:evenodd;fill:rgb(100%,92.941177%,0.784314%);fill-opacity:1;" d="M 90.367188 21.886719 L 90.367188 76.996094 L 157.542969 77.480469 L 150.617188 50.953125 L 159.242188 19.222656 L 116.726562 13.769531 Z M 90.367188 21.886719 "/>
<path style=" stroke:none;fill-rule:nonzero;fill:rgb(85.882354%,0%,18.82353%);fill-opacity:1;" d="M 50.578125 15.339844 L 69.839844 15.339844 L 69.839844 76.652344 L 50.578125 76.652344 Z M 50.578125 15.339844 "/>
<path style=" stroke:none;fill-rule:nonzero;fill:rgb(85.882354%,0%,18.82353%);fill-opacity:1;" d="M 89.394531 38.210938 L 89.394531 57.414062 L 29.460938 57.414062 L 29.460938 38.210938 Z M 89.394531 38.210938 "/>
<path style=" stroke:none;fill-rule:nonzero;fill:rgb(85.882354%,0%,18.82353%);fill-opacity:1;" d="M 96.394531 19.6875 L 103.519531 19.6875 L 103.519531 76.253906 L 96.394531 76.253906 Z M 96.394531 19.6875 "/>
<path style=" stroke:none;fill-rule:nonzero;fill:rgb(85.882354%,0%,18.82353%);fill-opacity:1;" d="M 109.917969 15.636719 L 117.039062 15.636719 L 117.039062 76.386719 L 109.917969 76.386719 Z M 109.917969 15.636719 "/>
<path style=" stroke:none;fill-rule:nonzero;fill:rgb(85.882354%,0%,18.82353%);fill-opacity:1;" d="M 123.527344 19.058594 L 130.652344 19.058594 L 130.652344 76.515625 L 123.527344 76.515625 Z M 123.527344 19.058594 "/>
<path style=" stroke:none;fill-rule:nonzero;fill:rgb(85.882354%,0%,18.82353%);fill-opacity:1;" d="M 137.011719 21.164062 L 144.136719 21.164062 L 144.136719 76.464844 L 137.011719 76.464844 Z M 137.011719 21.164062 "/>
<path style="fill-rule:evenodd;fill:rgb(92.941177%,73.333335%,0%);fill-opacity:1;stroke-width:0.937881;stroke-linecap:butt;stroke-linejoin:miter;stroke:rgb(87.058824%,70.588237%,1.960784%);stroke-opacity:1;stroke-miterlimit:4;" d="M 261.587819 170.473344 C 209.87847 208.373324 128.065032 212.357639 81.093536 193.399484 L 62.272375 217.631957 C 142.978686 331.184935 96.609597 445.440067 32.624162 515.410517 L 62.093281 546.599212 C 50.126539 717.761466 150.012199 816.748833 325.622098 826.938229 L 373.212283 866.683404 L 420.70478 826.317721 C 522.967507 824.554172 702.289538 767.189833 682.963657 546.337946 L 712.579307 515.655454 C 637.441195 432.311422 611.537676 318.154265 684.15219 217.631957 L 666.487 193.562776 C 602.241065 214.676379 528.73108 202.968372 484.494839 170.995877 C 418.148619 218.530061 333.892989 223.445138 261.587819 170.473344 Z M 485.080966 203.00103 C 524.986386 227.772366 569.059814 234.810233 645.060834 228.164265 C 606.995199 294.003438 602.892316 372.432393 636.594568 448.150707 L 109.211309 447.840453 C 137.5733 380.172415 144.085813 302.31498 99.621634 226.661983 C 154.424426 234.614284 207.97356 232.703772 261.359881 203.654196 C 333.795301 246.175329 408.298444 246.942799 485.080966 203.00103 Z M 90.487835 548.836307 L 656.018137 548.836307 C 670.882946 705.334975 571.453162 789.838378 420.281467 798.14992 L 324.173064 798.411187 C 179.530162 788.009512 71.780643 711.65436 90.487835 548.836307 Z M 90.487835 548.836307 " transform="matrix(0.239923,0,0,0.239219,0.504752,-32.675043)"/>
<path style="fill:none;stroke-width:4;stroke-linecap:butt;stroke-linejoin:miter;stroke:rgb(0%,0%,0%);stroke-opacity:1;stroke-miterlimit:4;" d="M 99.002945 227.478441 C 143.467124 303.131438 136.954612 381.005202 108.59262 448.67324 L 635.959598 448.983494 C 602.257346 373.248851 606.392792 294.819896 644.442146 228.980723 C 568.441125 235.643021 524.383978 228.588824 484.478558 203.833817 C 407.696036 247.775586 333.160331 246.975458 260.741192 204.470654 C 207.354871 233.52023 153.822019 235.430742 99.002945 227.478441 Z M 99.002945 227.478441 " transform="matrix(0.239923,0,0,0.239219,0.504752,-32.675043)"/>
<path style="fill:none;stroke-width:4;stroke-linecap:butt;stroke-linejoin:miter;stroke:rgb(0%,0%,0%);stroke-opacity:1;stroke-miterlimit:4;" d="M 90.487835 548.836307 L 656.001855 548.836307 C 670.866665 705.334975 571.453162 789.854707 420.265185 798.166249 L 324.189345 798.411187 C 179.546443 788.009512 71.780643 711.65436 90.487835 548.836307 Z M 90.487835 548.836307 " transform="matrix(0.239923,0,0,0.239219,0.504752,-32.675043)"/>
<path style="fill:none;stroke-width:4;stroke-linecap:butt;stroke-linejoin:miter;stroke:rgb(0%,0%,0%);stroke-opacity:1;stroke-miterlimit:4;" d="M 372.691282 235.398083 L 372.691282 449.081469 " transform="matrix(0.239923,0,0,0.239219,0.504752,-32.675043)"/>
<path style="fill-rule:nonzero;fill:rgb(92.941177%,73.333335%,0%);fill-opacity:1;stroke-width:3;stroke-linecap:butt;stroke-linejoin:miter;stroke:rgb(0%,0%,0%);stroke-opacity:1;stroke-miterlimit:4;" d="M 391.558718 656.705524 C 391.558718 688.400863 365.873411 714.100775 334.173805 714.100775 C 302.486349 714.100775 276.788891 688.400863 276.801041 656.705524 C 276.788891 625.02237 302.486349 599.322458 334.173805 599.322458 C 365.873411 599.322458 391.558718 625.02237 391.558718 656.705524 Z M 391.558718 656.705524 " transform="matrix(0.321499,0,0,0.320557,-17.249198,-82.722353)"/>
<path style="fill:none;stroke-width:3.5;stroke-linecap:butt;stroke-linejoin:miter;stroke:rgb(0%,0%,0%);stroke-opacity:1;stroke-miterlimit:4;" d="M 329.448199 608.160145 C 320.477213 640.867452 314.909015 673.068555 340.796252 688.548599 C 358.884755 699.358503 371.111997 677.314137 374.514785 668.773986 " transform="matrix(0.239923,0,0,0.239219,0.504752,-32.675043)"/>
<path style="fill:none;stroke-width:3.5;stroke-linecap:butt;stroke-linejoin:miter;stroke:rgb(0%,0%,0%);stroke-opacity:1;stroke-miterlimit:4;" d="M 302.64921 701.791548 C 317.807083 701.105723 325.719786 699.848378 335.43971 685.086817 " transform="matrix(0.239923,0,0,0.239219,0.504752,-32.675043)"/>
<path style="fill:none;stroke-width:3.5;stroke-linecap:butt;stroke-linejoin:miter;stroke:rgb(0%,0%,0%);stroke-opacity:1;stroke-miterlimit:4;" d="M 373.863534 669.345507 C 389.086532 659.988898 402.616276 664.512076 408.900851 687.928091 C 423.700536 681.967948 437.962938 693.398359 441.67507 704.943075 " transform="matrix(0.239923,0,0,0.239219,0.504752,-32.675043)"/>
<path style="fill:none;stroke-width:3.5;stroke-linecap:butt;stroke-linejoin:miter;stroke:rgb(0%,0%,0%);stroke-opacity:1;stroke-miterlimit:4;" d="M 409.210195 687.928091 C 397.976111 715.050825 368.409305 727.607949 326.9246 731.739227 " transform="matrix(0.239923,0,0,0.239219,0.504752,-32.675043)"/>
<path style="fill:none;stroke-width:3.5;stroke-linecap:butt;stroke-linejoin:miter;stroke:rgb(0%,0%,0%);stroke-opacity:1;stroke-miterlimit:4;" d="M 373.896097 670.45589 C 364.566922 661.89941 350.190551 652.118243 371.128279 626.987666 C 362.238699 615.736875 359.82907 604.74735 371.421342 594.313017 " transform="matrix(0.239923,0,0,0.239219,0.504752,-32.675043)"/>
<path style="fill:none;stroke-width:3.5;stroke-linecap:butt;stroke-linejoin:miter;stroke:rgb(0%,0%,0%);stroke-opacity:1;stroke-miterlimit:4;" d="M 450.336712 675.387296 C 436.676717 651.252798 404.895656 617.794349 371.128279 626.677412 " transform="matrix(0.239923,0,0,0.239219,0.504752,-32.675043)"/>
<path style=" stroke:none;fill-rule:nonzero;fill:rgb(0%,0%,0%);fill-opacity:1;" d="M 64.394531 77.816406 L 64.394531 77.882812 L 61.042969 77.882812 L 61.042969 95.261719 L 64.667969 95.261719 L 64.667969 88.050781 L 69.832031 88.050781 L 69.832031 84.371094 L 64.667969 84.371094 L 64.667969 81.554688 L 73.582031 81.554688 L 73.582031 77.816406 Z M 64.394531 77.816406 "/>
<path style="fill-rule:evenodd;fill:rgb(0%,0%,0%);fill-opacity:1;stroke-width:0.2;stroke-linecap:butt;stroke-linejoin:miter;stroke:rgb(0%,0%,0%);stroke-opacity:1;stroke-miterlimit:4;" d="M 380.571422 484.64638 L 394.117448 477.559524 C 385.472087 458.438078 350.402208 453.000468 338.875061 477.559524 C 326.973444 506.854037 339.624 534.074747 362.662012 536.72007 C 377.298884 538.85919 388.891156 531.690689 393.808103 518.953944 L 380.42489 511.279239 C 376.843008 520.178631 363.248139 526.285737 352.876963 511.426202 C 349.66955 504.796563 348.855486 494.574509 352.421087 484.64638 C 360.936197 472.954701 373.358814 474.212046 380.571422 484.64638 Z M 380.571422 484.64638 " transform="matrix(0.239923,0,0,0.239219,0.504752,-32.675043)"/>
<path style="fill-rule:evenodd;fill:rgb(0%,0%,0%);fill-opacity:1;stroke-width:1;stroke-linecap:butt;stroke-linejoin:miter;stroke:rgb(0%,0%,0%);stroke-opacity:1;stroke-miterlimit:4;" d="M 432.362177 462.063151 L 432.638959 535.381079 L 472.544379 535.217788 C 485.536841 533.405251 502.55078 512.144685 482.606211 495.635904 C 493.156481 486.328283 491.837697 466.455695 470.737157 462.226443 Z M 447.699144 476.498129 L 467.578588 476.498129 C 476.321636 479.012819 473.732913 487.422337 467.85537 488.842974 L 447.699144 488.842974 Z M 447.861957 503.163647 L 468.767122 503.441243 C 479.105735 506.527454 476.777512 518.300778 469.076466 520.309265 L 448.02477 520.162302 Z M 447.861957 503.163647 " transform="matrix(0.239923,0,0,0.239219,0.504752,-32.675043)"/>
</g>
</svg>
