<?xml version="1.0" encoding="UTF-8"?>
<svg xmlns="http://www.w3.org/2000/svg" xmlns:xlink="http://www.w3.org/1999/xlink" width="180px" height="180px" viewBox="0 0 180 241" version="1.1">
<g id="surface1">
<path style=" stroke:none;fill-rule:nonzero;fill:rgb(100%,100%,100%);fill-opacity:1;" d="M 125.363281 69.804688 C 124.3125 69.804688 123.492188 68.988281 123.492188 67.996094 C 123.492188 67.007812 124.3125 66.191406 125.363281 66.191406 C 126.414062 66.191406 127.234375 67.007812 127.234375 67.996094 C 127.289062 68.988281 126.414062 69.804688 125.363281 69.804688 Z M 13.738281 154.300781 C 13.738281 113.917969 48 81.113281 89.871094 81.113281 C 131.738281 81.113281 166 113.976562 166 154.300781 C 166 194.5625 131.738281 227.542969 89.871094 227.542969 C 48.007812 227.488281 13.738281 194.5625 13.738281 154.300781 Z M 119.746094 42.535156 C 121.558594 43 122.667969 44.75 122.199219 46.496094 C 121.734375 48.242188 119.863281 49.296875 118.050781 48.824219 C 116.234375 48.355469 115.128906 46.609375 115.59375 44.863281 C 116.0625 43.117188 117.933594 42.0625 119.746094 42.535156 Z M 122.847656 36.125 C 123.898438 36.125 124.71875 36.941406 124.71875 37.933594 C 124.71875 38.925781 123.898438 39.742188 122.847656 39.742188 C 121.796875 39.742188 120.976562 38.925781 120.976562 37.933594 C 120.917969 36.886719 121.796875 36.125 122.847656 36.125 Z M 121.269531 29.597656 C 122.320312 29.597656 123.136719 30.414062 123.136719 31.40625 C 123.136719 32.398438 122.320312 33.214844 121.269531 33.214844 C 120.21875 33.214844 119.398438 32.398438 119.398438 31.40625 C 119.339844 30.414062 120.21875 29.597656 121.269531 29.597656 Z M 144.65625 46.734375 C 145.707031 46.734375 146.527344 47.550781 146.527344 48.539062 C 146.527344 49.53125 145.707031 50.347656 144.65625 50.347656 C 143.605469 50.347656 142.785156 49.53125 142.785156 48.539062 C 142.785156 47.550781 143.605469 46.734375 144.65625 46.734375 Z M 143.078125 40.265625 C 144.128906 40.265625 144.949219 41.085938 144.949219 42.074219 C 144.949219 43.066406 144.128906 43.882812 143.078125 43.882812 C 142.027344 43.882812 141.207031 43.066406 141.207031 42.074219 C 141.207031 41.085938 142.027344 40.265625 143.078125 40.265625 Z M 140.269531 34.558594 C 141.320312 34.558594 142.140625 35.375 142.140625 36.367188 C 142.140625 37.355469 141.265625 38.175781 140.269531 38.175781 C 139.21875 38.175781 138.398438 37.355469 138.398438 36.367188 C 138.34375 35.375 139.21875 34.558594 140.269531 34.558594 Z M 135.765625 29.488281 C 136.816406 29.488281 137.636719 30.304688 137.636719 31.292969 C 137.636719 32.285156 136.816406 33.101562 135.765625 33.101562 C 134.714844 33.101562 133.894531 32.285156 133.894531 31.292969 C 133.894531 30.304688 134.714844 29.488281 135.765625 29.488281 Z M 130.265625 25.640625 C 131.316406 25.640625 132.136719 26.457031 132.136719 27.449219 C 132.136719 28.441406 131.316406 29.257812 130.265625 29.257812 C 129.214844 29.257812 128.394531 28.441406 128.394531 27.449219 C 128.394531 26.457031 129.214844 25.640625 130.265625 25.640625 Z M 124.300781 23.367188 C 125.351562 23.367188 126.171875 24.1875 126.171875 25.175781 C 126.171875 26.167969 125.351562 26.984375 124.300781 26.984375 C 123.25 26.984375 122.429688 26.167969 122.429688 25.175781 C 122.429688 24.1875 123.308594 23.367188 124.300781 23.367188 Z M 118.28125 23.894531 C 119.332031 23.894531 120.148438 24.710938 120.148438 25.703125 C 120.148438 26.695312 119.332031 27.511719 118.28125 27.511719 C 117.230469 27.511719 116.410156 26.695312 116.410156 25.703125 C 116.410156 24.710938 117.230469 23.894531 118.28125 23.894531 Z M 113.835938 18.941406 C 114.886719 18.941406 115.707031 19.757812 115.707031 20.75 C 115.707031 21.738281 114.832031 22.558594 113.835938 22.558594 C 112.785156 22.558594 111.964844 21.738281 111.964844 20.75 C 111.964844 19.757812 112.785156 18.941406 113.835938 18.941406 Z M 108.046875 15.269531 C 109.097656 15.269531 109.917969 16.085938 109.917969 17.078125 C 109.917969 18.066406 109.097656 18.886719 108.046875 18.886719 C 106.996094 18.886719 106.175781 18.066406 106.175781 17.078125 C 106.175781 16.085938 106.996094 15.269531 108.046875 15.269531 Z M 102.023438 13.113281 C 103.074219 13.113281 103.894531 13.929688 103.894531 14.921875 C 103.894531 15.914062 103.074219 16.730469 102.023438 16.730469 C 100.972656 16.730469 100.152344 15.914062 100.152344 14.921875 C 100.152344 13.929688 100.972656 13.113281 102.023438 13.113281 Z M 95.886719 12.066406 C 96.9375 12.066406 97.757812 12.882812 97.757812 13.875 C 97.757812 14.867188 96.9375 15.683594 95.886719 15.683594 C 94.835938 15.683594 94.015625 14.867188 94.015625 13.875 C 93.957031 12.882812 94.835938 12.066406 95.886719 12.066406 Z M 37.480469 59.902344 C 35.84375 60.765625 33.816406 60.203125 32.863281 58.621094 C 32.425781 57.863281 32.324219 56.957031 32.578125 56.121094 C 32.832031 55.28125 33.421875 54.585938 34.207031 54.195312 C 35.84375 53.332031 37.871094 53.894531 38.824219 55.476562 C 39.699219 57.050781 39.117188 59.03125 37.480469 59.902344 Z M 61.691406 48.832031 C 59.875 49.296875 58.003906 48.25 57.539062 46.503906 C 57.074219 44.757812 58.183594 42.949219 59.992188 42.539062 C 61.808594 42.074219 63.679688 43.121094 64.144531 44.867188 C 64.609375 46.613281 63.5 48.421875 61.691406 48.832031 Z M 89.871094 45.394531 C 88.984375 45.410156 88.128906 45.078125 87.496094 44.464844 C 86.859375 43.851562 86.492188 43.011719 86.476562 42.132812 C 86.476562 40.324219 88 38.867188 89.871094 38.867188 C 91.738281 38.867188 93.261719 40.324219 93.261719 42.132812 C 93.261719 43.9375 91.738281 45.394531 89.871094 45.394531 Z M 56.949219 39.742188 C 55.898438 39.742188 55.078125 38.925781 55.078125 37.933594 C 55.078125 36.941406 55.898438 36.125 56.949219 36.125 C 58 36.125 58.820312 36.941406 58.820312 37.933594 C 58.820312 38.925781 57.945312 39.742188 56.949219 39.742188 Z M 58.527344 33.214844 C 57.476562 33.214844 56.65625 32.398438 56.65625 31.40625 C 56.65625 30.414062 57.476562 29.597656 58.527344 29.597656 C 59.578125 29.597656 60.398438 30.414062 60.398438 31.40625 C 60.398438 32.398438 59.523438 33.214844 58.527344 33.214844 Z M 35.082031 50.40625 C 34.03125 50.40625 33.210938 49.585938 33.210938 48.597656 C 33.210938 47.605469 34.03125 46.789062 35.082031 46.789062 C 36.132812 46.789062 36.953125 47.605469 36.953125 48.597656 C 37.007812 49.585938 36.132812 50.40625 35.082031 50.40625 Z M 36.660156 43.878906 C 35.609375 43.878906 34.789062 43.0625 34.789062 42.070312 C 34.789062 41.078125 35.667969 40.261719 36.660156 40.261719 C 37.710938 40.261719 38.53125 41.078125 38.53125 42.070312 C 38.585938 43.0625 37.710938 43.878906 36.660156 43.878906 Z M 39.46875 38.167969 C 38.417969 38.167969 37.597656 37.351562 37.597656 36.359375 C 37.597656 35.371094 38.417969 34.550781 39.46875 34.550781 C 40.519531 34.550781 41.339844 35.371094 41.339844 36.359375 C 41.394531 37.351562 40.519531 38.167969 39.46875 38.167969 Z M 43.972656 33.097656 C 42.925781 33.097656 42.105469 32.28125 42.105469 31.289062 C 42.105469 30.296875 42.925781 29.480469 43.972656 29.480469 C 45.023438 29.480469 45.84375 30.296875 45.84375 31.289062 C 45.84375 32.28125 45.023438 33.097656 43.972656 33.097656 Z M 49.472656 29.25 C 48.421875 29.25 47.601562 28.433594 47.601562 27.445312 C 47.601562 26.453125 48.421875 25.636719 49.472656 25.636719 C 50.523438 25.636719 51.34375 26.453125 51.34375 27.445312 C 51.398438 28.433594 50.523438 29.25 49.472656 29.25 Z M 55.4375 27.035156 C 54.386719 27.035156 53.566406 26.21875 53.566406 25.226562 C 53.566406 24.234375 54.386719 23.417969 55.4375 23.417969 C 56.488281 23.417969 57.308594 24.234375 57.308594 25.226562 C 57.308594 26.21875 56.488281 27.035156 55.4375 27.035156 Z M 61.460938 27.5 C 60.410156 27.5 59.589844 26.683594 59.589844 25.691406 C 59.589844 24.699219 60.410156 23.882812 61.460938 23.882812 C 62.511719 23.882812 63.332031 24.699219 63.332031 25.691406 C 63.386719 26.683594 62.511719 27.5 61.460938 27.5 Z M 65.902344 22.605469 C 64.851562 22.605469 64.03125 21.789062 64.03125 20.800781 C 64.03125 19.808594 64.910156 18.992188 65.902344 18.992188 C 66.953125 18.992188 67.773438 19.808594 67.773438 20.800781 C 67.773438 21.789062 66.953125 22.605469 65.902344 22.605469 Z M 71.695312 18.878906 C 70.644531 18.878906 69.824219 18.0625 69.824219 17.070312 C 69.824219 16.082031 70.644531 15.261719 71.695312 15.261719 C 72.742188 15.261719 73.5625 16.082031 73.5625 17.070312 C 73.5625 18.0625 72.742188 18.878906 71.695312 18.878906 Z M 77.714844 16.722656 C 76.664062 16.722656 75.84375 15.90625 75.84375 14.917969 C 75.84375 13.925781 76.722656 13.109375 77.714844 13.109375 C 78.765625 13.109375 79.585938 13.925781 79.585938 14.917969 C 79.585938 15.90625 78.765625 16.722656 77.714844 16.722656 Z M 89.871094 34.550781 C 88.820312 34.550781 88 33.734375 88 32.746094 C 88 31.753906 88.875 30.9375 89.871094 30.9375 C 90.921875 30.9375 91.738281 31.753906 91.738281 32.746094 C 91.738281 33.734375 90.921875 34.550781 89.871094 34.550781 Z M 89.871094 27.96875 C 88.820312 27.96875 88 27.152344 88 26.160156 C 88 25.171875 88.875 24.355469 89.871094 24.355469 C 90.921875 24.355469 91.738281 25.171875 91.738281 26.160156 C 91.738281 27.152344 90.921875 27.96875 89.871094 27.96875 Z M 89.871094 21.386719 C 88.820312 21.386719 88 20.570312 88 19.578125 C 88 18.589844 88.875 17.769531 89.871094 17.769531 C 90.921875 17.769531 91.738281 18.589844 91.738281 19.578125 C 91.738281 20.570312 90.921875 21.386719 89.871094 21.386719 Z M 83.90625 15.675781 C 82.855469 15.675781 81.972656 14.859375 81.972656 13.871094 C 81.972656 12.878906 82.847656 12.0625 83.90625 12.0625 C 84.960938 12.0625 85.773438 12.878906 85.773438 13.871094 C 85.773438 14.917969 84.898438 15.675781 83.90625 15.675781 Z M 145.53125 54.1875 C 147.167969 55.0625 147.757812 57.042969 146.875 58.617188 C 145.992188 60.1875 143.894531 60.769531 142.257812 59.898438 C 141.484375 59.496094 140.90625 58.796875 140.652344 57.964844 C 140.398438 57.132812 140.496094 56.234375 140.914062 55.46875 C 141.867188 53.886719 143.898438 53.324219 145.53125 54.1875 Z M 101.972656 63.742188 C 100.921875 63.742188 100.105469 62.925781 100.105469 61.933594 C 100.105469 60.945312 100.921875 60.128906 101.972656 60.128906 C 103.023438 60.128906 103.84375 60.945312 103.84375 61.933594 C 103.902344 62.925781 103.023438 63.742188 101.972656 63.742188 Z M 54.375 69.804688 C 53.328125 69.804688 52.507812 68.988281 52.507812 67.996094 C 52.507812 67.007812 53.382812 66.191406 54.375 66.191406 C 55.425781 66.191406 56.246094 67.007812 56.246094 67.996094 C 56.246094 68.988281 55.425781 69.804688 54.375 69.804688 Z M 77.765625 63.742188 C 76.714844 63.742188 75.894531 62.925781 75.894531 61.933594 C 75.894531 60.945312 76.769531 60.128906 77.765625 60.128906 C 78.816406 60.128906 79.636719 60.945312 79.636719 61.933594 C 79.636719 62.925781 78.816406 63.742188 77.765625 63.742188 Z M 77.765625 63.742188 "/>
<path style=" stroke:none;fill-rule:nonzero;fill:rgb(90.196079%,14.901961%,26.666668%);fill-opacity:1;" d="M 103.902344 50.632812 C 104.429688 51.742188 105.011719 52.558594 105.769531 53.253906 L 100.570312 52.609375 C 101.546875 52.089844 102.402344 51.375 103.085938 50.511719 Z M 75.832031 50.632812 C 77.355469 51.390625 78.230469 52.089844 79.164062 52.617188 L 73.960938 53.257812 C 74.78125 52.503906 75.421875 51.628906 75.832031 50.640625 Z M 65.71875 54.769531 L 61.15625 55.878906 C 61.976562 54.886719 62.5 53.664062 62.617188 52.378906 C 63.429688 53.425781 64.496094 54.25 65.71875 54.769531 Z M 48.351562 60.25 C 48.785156 59.542969 49.121094 58.777344 49.34375 57.976562 L 49.578125 57.921875 C 50.015625 57.816406 50.433594 57.640625 50.808594 57.394531 C 51.53125 57.863281 52.320312 58.214844 53.148438 58.441406 Z M 89.871094 49.0625 C 90.335938 50.285156 91.210938 51.332031 92.269531 52.152344 C 91.449219 52.152344 90.691406 52.09375 89.871094 52.09375 L 87.472656 52.152344 C 88.582031 51.332031 89.402344 50.285156 89.871094 49.0625 Z M 128.929688 57.335938 C 129.277344 57.570312 129.75 57.742188 130.160156 57.859375 L 130.394531 57.917969 C 130.570312 58.734375 130.921875 59.488281 131.390625 60.1875 L 126.535156 58.324219 C 127.394531 58.152344 128.207031 57.816406 128.933594 57.335938 Z M 118.578125 55.878906 L 114.015625 54.769531 C 115.226562 54.261719 116.277344 53.4375 117.054688 52.378906 C 117.226562 53.664062 117.753906 54.875 118.578125 55.878906 Z M 124.480469 41.660156 C 125.765625 41.136719 126.707031 40.03125 126.996094 38.6875 C 129.042969 39.152344 131.320312 39.679688 133.191406 40.433594 C 134.699219 40.996094 136.105469 41.804688 137.34375 42.824219 C 138.335938 45.332031 138.921875 48.242188 139.277344 51.796875 C 138.046875 52.324219 137.230469 53.542969 136.757812 54.769531 C 136 56.632812 136 58.558594 138.101562 60.015625 C 137.15625 60.089844 136.222656 59.753906 135.542969 59.097656 C 134.859375 58.441406 134.492188 57.523438 134.535156 56.578125 C 134.9375 56.125 135.238281 55.585938 135.410156 55.003906 C 135.996094 52.789062 134.652344 50.578125 132.371094 50.050781 C 130.09375 49.46875 127.8125 50.808594 127.226562 52.960938 C 127.171875 53.199219 127.109375 53.425781 127.109375 53.664062 C 125.175781 55.933594 121.320312 54.769531 121.144531 51.796875 C 124.710938 52.496094 126.234375 50.75 126.816406 48.417969 C 127.34375 46.492188 127.109375 44.515625 124.828125 43.347656 C 124.710938 42.703125 124.65625 42.121094 124.480469 41.65625 Z M 64.199219 33.625 C 70.984375 30.011719 79.808594 29.367188 86.652344 30.359375 L 86.652344 30.824219 C 85.621094 32.363281 85.980469 34.4375 87.472656 35.542969 C 86.183594 35.953125 85.191406 36.882812 84.84375 38.515625 C 82.269531 39.097656 81.566406 40.960938 81.566406 42.941406 C 81.566406 45.332031 82.5625 47.371094 86.183594 47.542969 C 85.773438 48.882812 84.488281 49.816406 82.964844 49.816406 C 81.546875 49.828125 80.277344 48.9375 79.808594 47.601562 C 79.929688 47.253906 79.929688 46.902344 79.929688 46.554688 C 79.929688 44.28125 77.996094 42.472656 75.660156 42.472656 C 73.324219 42.472656 71.390625 44.28125 71.390625 46.554688 C 71.375 47.234375 71.558594 47.902344 71.917969 48.480469 C 71.8125 49.90625 70.796875 51.105469 69.402344 51.453125 C 67.988281 51.8125 66.5 51.226562 65.71875 49.996094 C 69.167969 48.949219 69.632812 46.734375 68.992188 44.402344 C 68.464844 42.476562 67.296875 40.847656 64.667969 40.90625 C 64.28125 40.085938 63.621094 39.425781 62.796875 39.042969 C 63.144531 37.175781 63.554688 35.3125 64.199219 33.625 Z M 93.027344 30.304688 C 99.867188 29.3125 108.753906 29.957031 115.476562 33.566406 C 116.136719 35.335938 116.585938 37.175781 116.820312 39.046875 C 115.996094 39.429688 115.332031 40.089844 114.949219 40.910156 C 112.320312 40.855469 111.148438 42.484375 110.679688 44.410156 C 110.035156 46.738281 110.507812 48.953125 113.953125 50 C 113.195312 51.164062 111.730469 51.808594 110.269531 51.457031 C 108.867188 51.121094 107.847656 49.917969 107.753906 48.484375 C 108.105469 47.902344 108.285156 47.238281 108.28125 46.558594 C 108.28125 44.285156 106.410156 42.476562 104.011719 42.476562 C 101.675781 42.476562 99.746094 44.285156 99.746094 46.558594 C 99.753906 46.910156 99.792969 47.261719 99.863281 47.605469 C 99.382812 48.933594 98.121094 49.816406 96.707031 49.824219 C 95.253906 49.835938 93.957031 48.917969 93.488281 47.550781 C 97.109375 47.375 98.105469 45.332031 98.105469 42.949219 C 98.105469 40.910156 97.402344 39.101562 94.828125 38.519531 C 94.535156 37.140625 93.539062 36.011719 92.199219 35.546875 C 93.019531 34.90625 93.605469 33.859375 93.605469 32.75 C 93.605469 32.050781 93.367188 31.351562 93.019531 30.824219 Z M 46.601562 40.441406 C 48.472656 39.742188 50.753906 39.160156 52.796875 38.695312 C 53.089844 40.03125 54.027344 41.140625 55.316406 41.667969 C 55.113281 42.183594 55.035156 42.742188 55.078125 43.296875 C 52.742188 44.460938 52.5625 46.441406 53.089844 48.367188 C 53.738281 50.695312 55.195312 52.449219 58.761719 51.746094 C 58.644531 54.71875 54.730469 55.882812 52.796875 53.613281 C 52.796875 53.375 52.742188 53.148438 52.679688 52.914062 C 52.097656 50.695312 49.761719 49.414062 47.480469 50 C 45.199219 50.589844 43.855469 52.800781 44.441406 54.957031 C 44.613281 55.539062 44.90625 56.121094 45.316406 56.527344 C 45.371094 57.753906 44.734375 58.917969 43.5625 59.554688 C 43 59.828125 42.378906 59.96875 41.75 59.964844 C 43.855469 58.566406 43.855469 56.644531 43.09375 54.71875 C 42.566406 53.554688 41.804688 52.332031 40.519531 51.808594 C 40.8125 48.253906 41.394531 45.34375 42.390625 42.835938 C 43.441406 42.019531 44.789062 41.089844 46.601562 40.445312 Z M 95.953125 61.304688 L 89.871094 63.457031 L 83.847656 61.304688 L 89.871094 59.140625 Z M 50.398438 69.222656 L 49.871094 71.261719 L 49.699219 72.015625 L 49.289062 71.78125 L 47.242188 70.671875 L 47.769531 68.746094 L 47.890625 68.339844 L 48.589844 68.574219 Z M 129.332031 69.222656 L 131.851562 68.289062 L 131.96875 68.699219 L 132.496094 70.679688 L 130.507812 71.726562 L 130.097656 71.960938 L 129.921875 71.203125 Z M 129.332031 69.222656 "/>
<path style=" stroke:none;fill-rule:nonzero;fill:rgb(98.823529%,74.901962%,0%);fill-opacity:1;" d="M 118.578125 55.878906 C 117.757812 54.886719 117.234375 53.664062 117.117188 52.378906 C 116.359375 53.425781 115.246094 54.246094 114.078125 54.769531 L 118.582031 55.878906 Z M 128.929688 57.335938 C 128.226562 57.800781 127.40625 58.152344 126.59375 58.382812 L 131.445312 60.246094 C 130.984375 59.550781 130.648438 58.78125 130.453125 57.972656 L 130.214844 57.917969 C 129.75 57.800781 129.339844 57.570312 128.929688 57.335938 Z M 89.871094 49.0625 C 89.402344 50.285156 88.582031 51.332031 87.472656 52.152344 L 89.871094 52.09375 L 92.269531 52.152344 C 91.203125 51.359375 90.371094 50.289062 89.871094 49.0625 Z M 48.355469 60.25 L 53.207031 58.386719 C 52.386719 58.152344 51.574219 57.804688 50.871094 57.339844 C 50.523438 57.574219 50.050781 57.75 49.640625 57.867188 L 49.40625 57.921875 C 49.113281 58.738281 48.820312 59.550781 48.355469 60.25 Z M 65.722656 54.769531 C 64.511719 54.261719 63.460938 53.4375 62.683594 52.378906 C 62.511719 53.664062 62.039062 54.886719 61.222656 55.878906 L 65.730469 54.769531 Z M 75.839844 50.632812 C 75.429688 51.625 74.789062 52.496094 73.96875 53.253906 L 79.167969 52.609375 C 78.199219 52.105469 77.359375 51.390625 76.714844 50.511719 C 76.421875 50.566406 76.132812 50.628906 75.839844 50.628906 Z M 103.90625 50.632812 C 102.441406 51.390625 101.5625 52.089844 100.570312 52.617188 L 105.769531 53.257812 C 105.019531 52.5625 104.40625 51.734375 103.957031 50.8125 Z M 145.539062 54.1875 C 143.902344 53.320312 141.871094 53.886719 140.921875 55.46875 C 140.046875 57.042969 140.628906 59.023438 142.265625 59.898438 C 143.898438 60.761719 145.929688 60.199219 146.882812 58.617188 C 147.332031 57.859375 147.445312 56.949219 147.1875 56.109375 C 146.933594 55.265625 146.335938 54.570312 145.539062 54.1875 Z M 119.75 42.535156 C 117.9375 42.070312 116.066406 43.117188 115.601562 44.863281 C 115.132812 46.609375 116.246094 48.417969 118.054688 48.824219 C 119.871094 49.289062 121.738281 48.242188 122.207031 46.496094 C 122.671875 44.75 121.558594 42.941406 119.75 42.535156 Z M 122.851562 36.125 C 121.800781 36.125 120.980469 36.941406 120.980469 37.933594 C 120.980469 38.925781 121.859375 39.742188 122.851562 39.742188 C 123.902344 39.742188 124.722656 38.925781 124.722656 37.933594 C 124.726562 37.441406 124.53125 36.972656 124.175781 36.628906 C 123.824219 36.289062 123.34375 36.105469 122.851562 36.125 Z M 121.273438 29.597656 C 120.222656 29.597656 119.402344 30.414062 119.402344 31.40625 C 119.402344 32.398438 120.28125 33.214844 121.273438 33.214844 C 122.324219 33.214844 123.144531 32.398438 123.144531 31.40625 C 123.144531 30.414062 122.324219 29.597656 121.273438 29.597656 Z M 144.664062 46.734375 C 143.613281 46.734375 142.792969 47.550781 142.792969 48.539062 C 142.792969 49.53125 143.613281 50.347656 144.664062 50.347656 C 145.710938 50.347656 146.53125 49.53125 146.53125 48.539062 C 146.53125 47.550781 145.710938 46.734375 144.664062 46.734375 Z M 143.082031 40.265625 C 142.035156 40.265625 141.214844 41.085938 141.214844 42.074219 C 141.214844 43.066406 142.035156 43.882812 143.082031 43.882812 C 144.132812 43.882812 144.953125 43.066406 144.953125 42.074219 C 144.953125 41.085938 144.132812 40.265625 143.082031 40.265625 Z M 140.277344 34.558594 C 139.226562 34.558594 138.40625 35.375 138.40625 36.367188 C 138.40625 37.355469 139.28125 38.175781 140.277344 38.175781 C 141.324219 38.175781 142.144531 37.355469 142.144531 36.367188 C 142.144531 35.375 141.324219 34.558594 140.277344 34.558594 Z M 135.769531 29.488281 C 134.71875 29.488281 133.902344 30.304688 133.902344 31.292969 C 133.902344 32.285156 134.71875 33.101562 135.769531 33.101562 C 136.820312 33.101562 137.640625 32.285156 137.640625 31.292969 C 137.640625 30.304688 136.820312 29.488281 135.769531 29.488281 Z M 130.273438 25.640625 C 129.222656 25.640625 128.402344 26.457031 128.402344 27.449219 C 128.402344 28.441406 129.222656 29.257812 130.273438 29.257812 C 131.320312 29.257812 132.140625 28.441406 132.140625 27.449219 C 132.140625 26.457031 131.320312 25.640625 130.273438 25.640625 Z M 124.308594 23.367188 C 123.257812 23.367188 122.4375 24.1875 122.4375 25.175781 C 122.4375 26.167969 123.257812 26.984375 124.308594 26.984375 C 125.355469 26.984375 126.175781 26.167969 126.175781 25.175781 C 126.234375 24.1875 125.355469 23.367188 124.308594 23.367188 Z M 118.285156 23.894531 C 117.234375 23.894531 116.414062 24.710938 116.414062 25.703125 C 116.414062 26.695312 117.234375 27.511719 118.285156 27.511719 C 119.335938 27.511719 120.15625 26.695312 120.15625 25.703125 C 120.15625 24.710938 119.335938 23.894531 118.285156 23.894531 Z M 113.84375 18.941406 C 112.792969 18.941406 111.972656 19.757812 111.972656 20.75 C 111.972656 21.738281 112.792969 22.558594 113.84375 22.558594 C 114.894531 22.558594 115.714844 21.738281 115.714844 20.75 C 115.769531 19.757812 114.894531 18.941406 113.84375 18.941406 Z M 108.050781 15.269531 C 107 15.269531 106.179688 16.085938 106.179688 17.078125 C 106.179688 18.066406 107 18.886719 108.050781 18.886719 C 109.101562 18.886719 109.921875 18.066406 109.921875 17.078125 C 109.921875 16.085938 109.101562 15.269531 108.050781 15.269531 Z M 102.03125 13.113281 C 100.980469 13.113281 100.160156 13.929688 100.160156 14.921875 C 100.160156 15.914062 100.980469 16.730469 102.03125 16.730469 C 103.082031 16.730469 103.902344 15.914062 103.902344 14.921875 C 103.957031 13.929688 103.082031 13.113281 102.03125 13.113281 Z M 95.890625 12.066406 C 94.839844 12.066406 94.019531 12.882812 94.019531 13.875 C 94.019531 14.867188 94.839844 15.683594 95.890625 15.683594 C 96.941406 15.683594 97.761719 14.867188 97.761719 13.875 C 97.761719 12.882812 96.941406 12.066406 95.890625 12.066406 Z M 37.480469 59.902344 C 39.117188 59.03125 39.707031 57.050781 38.824219 55.476562 C 37.878906 53.882812 35.839844 53.316406 34.207031 54.195312 C 32.570312 55.066406 31.980469 57.050781 32.863281 58.621094 C 33.746094 60.195312 35.847656 60.777344 37.480469 59.902344 Z M 61.691406 48.832031 C 63.503906 48.367188 64.609375 46.613281 64.144531 44.867188 C 63.679688 43.121094 61.808594 42.070312 59.992188 42.539062 C 58.179688 43.011719 57.074219 44.757812 57.539062 46.503906 C 58.066406 48.265625 59.902344 49.296875 61.691406 48.832031 Z M 89.871094 45.394531 C 91.738281 45.394531 93.261719 43.9375 93.261719 42.132812 C 93.246094 41.25 92.882812 40.410156 92.246094 39.796875 C 91.609375 39.1875 90.753906 38.851562 89.871094 38.867188 C 88.984375 38.851562 88.128906 39.1875 87.496094 39.796875 C 86.859375 40.410156 86.492188 41.25 86.476562 42.132812 C 86.476562 43.9375 88 45.394531 89.871094 45.394531 Z M 56.949219 39.742188 C 58 39.742188 58.820312 38.925781 58.820312 37.933594 C 58.820312 36.941406 58 36.125 56.949219 36.125 C 55.898438 36.125 55.078125 36.941406 55.078125 37.933594 C 55.023438 38.925781 55.898438 39.742188 56.949219 39.742188 Z M 58.527344 33.214844 C 59.578125 33.214844 60.398438 32.398438 60.398438 31.40625 C 60.398438 30.414062 59.578125 29.597656 58.527344 29.597656 C 57.476562 29.597656 56.65625 30.414062 56.65625 31.40625 C 56.601562 32.398438 57.476562 33.214844 58.527344 33.214844 Z M 35.082031 50.40625 C 36.132812 50.40625 36.953125 49.585938 36.953125 48.597656 C 36.953125 47.605469 36.132812 46.789062 35.082031 46.789062 C 34.03125 46.789062 33.210938 47.605469 33.210938 48.597656 C 33.210938 49.585938 34.03125 50.40625 35.082031 50.40625 Z M 36.660156 43.878906 C 37.710938 43.878906 38.53125 43.0625 38.53125 42.070312 C 38.5 41.0625 37.671875 40.261719 36.660156 40.261719 C 35.609375 40.261719 34.789062 41.078125 34.789062 42.070312 C 34.789062 43.0625 35.609375 43.878906 36.660156 43.878906 Z M 39.46875 38.167969 C 40.519531 38.167969 41.339844 37.351562 41.339844 36.359375 C 41.339844 35.371094 40.519531 34.550781 39.46875 34.550781 C 38.417969 34.550781 37.597656 35.371094 37.597656 36.359375 C 37.597656 37.351562 38.476562 38.167969 39.46875 38.167969 Z M 43.972656 33.097656 C 45.023438 33.097656 45.84375 32.28125 45.84375 31.289062 C 45.84375 30.296875 45.023438 29.480469 43.972656 29.480469 C 42.925781 29.480469 42.105469 30.296875 42.105469 31.289062 C 42.105469 32.28125 42.925781 33.097656 43.972656 33.097656 Z M 49.472656 29.25 C 50.523438 29.25 51.34375 28.433594 51.34375 27.445312 C 51.34375 26.453125 50.523438 25.636719 49.472656 25.636719 C 48.421875 25.636719 47.601562 26.453125 47.601562 27.445312 C 47.601562 28.433594 48.480469 29.25 49.472656 29.25 Z M 55.4375 27.035156 C 56.488281 27.035156 57.308594 26.21875 57.308594 25.226562 C 57.308594 24.234375 56.488281 23.417969 55.4375 23.417969 C 54.386719 23.417969 53.566406 24.234375 53.566406 25.226562 C 53.566406 26.21875 54.386719 27.035156 55.4375 27.035156 Z M 61.460938 27.5 C 62.511719 27.5 63.332031 26.683594 63.332031 25.691406 C 63.332031 24.699219 62.511719 23.882812 61.460938 23.882812 C 60.410156 23.882812 59.589844 24.699219 59.589844 25.691406 C 59.589844 26.683594 60.410156 27.5 61.460938 27.5 Z M 65.902344 22.605469 C 66.953125 22.605469 67.773438 21.789062 67.773438 20.800781 C 67.773438 19.808594 66.953125 18.992188 65.902344 18.992188 C 64.851562 18.992188 64.03125 19.808594 64.03125 20.800781 C 64.03125 21.789062 64.851562 22.605469 65.902344 22.605469 Z M 71.695312 18.878906 C 72.742188 18.878906 73.5625 18.0625 73.5625 17.070312 C 73.5625 16.082031 72.742188 15.261719 71.695312 15.261719 C 70.644531 15.261719 69.824219 16.082031 69.824219 17.070312 C 69.824219 18.0625 70.644531 18.878906 71.695312 18.878906 Z M 77.714844 16.722656 C 78.765625 16.722656 79.585938 15.90625 79.585938 14.917969 C 79.585938 13.925781 78.765625 13.109375 77.714844 13.109375 C 76.664062 13.109375 75.84375 13.925781 75.84375 14.917969 C 75.84375 15.90625 76.664062 16.722656 77.714844 16.722656 Z M 89.871094 34.550781 C 90.921875 34.550781 91.738281 33.734375 91.738281 32.746094 C 91.738281 31.753906 90.921875 30.9375 89.871094 30.9375 C 88.820312 30.9375 88 31.753906 88 32.746094 C 88 33.734375 88.820312 34.550781 89.871094 34.550781 Z M 89.871094 27.96875 C 90.921875 27.96875 91.738281 27.152344 91.738281 26.160156 C 91.738281 25.171875 90.921875 24.355469 89.871094 24.355469 C 88.820312 24.355469 88 25.171875 88 26.160156 C 88 27.152344 88.820312 27.96875 89.871094 27.96875 Z M 89.871094 21.386719 C 90.921875 21.386719 91.738281 20.570312 91.738281 19.578125 C 91.738281 18.589844 90.921875 17.769531 89.871094 17.769531 C 88.820312 17.769531 88 18.589844 88 19.578125 C 88 20.570312 88.820312 21.386719 89.871094 21.386719 Z M 83.90625 15.675781 C 84.953125 15.675781 85.773438 14.859375 85.773438 13.871094 C 85.746094 12.863281 84.917969 12.0625 83.90625 12.0625 C 82.855469 12.0625 81.972656 12.878906 81.972656 13.871094 C 81.972656 14.917969 82.847656 15.675781 83.90625 15.675781 Z M 135.828125 60.257812 C 137.40625 61.074219 138.636719 60.722656 140.152344 60.199219 C 137.636719 58.972656 136.292969 57.871094 137.460938 55.015625 C 137.988281 53.734375 138.628906 52.746094 140.035156 52.335938 C 139.15625 41.207031 135.9375 35.902344 125.417969 30.835938 L 124.660156 31.070312 C 124.660156 31.1875 124.71875 31.304688 124.71875 31.480469 C 124.71875 32.996094 123.839844 33.75 122.671875 34.570312 C 124.542969 34.917969 126.238281 35.796875 126.238281 37.949219 C 126.238281 39.757812 124.953125 40.75 123.316406 41.214844 C 123.847656 42.203125 123.964844 42.613281 123.847656 43.777344 C 126.007812 44.769531 126.476562 46.050781 125.890625 48.203125 C 125.070312 51.234375 123.199219 51.523438 120.21875 50.769531 C 119.886719 52.675781 120.925781 54.554688 122.71875 55.292969 C 124.511719 56.035156 126.582031 55.4375 127.699219 53.859375 C 127.699219 53.566406 127.753906 53.332031 127.816406 53.039062 C 128.285156 51.292969 130.152344 50.1875 132.03125 50.652344 C 133.90625 51.117188 135.011719 52.921875 134.484375 54.667969 C 134.308594 55.253906 134.019531 55.714844 133.609375 56.125 C 133.550781 57.871094 134.308594 59.445312 135.832031 60.261719 Z M 86.945312 19.523438 C 86.945312 19.289062 87 19.058594 87 18.765625 C 73.261719 17.777344 63.375 26.8125 62.03125 39.511719 C 63.261719 39.976562 63.730469 40.503906 64.257812 41.667969 C 66.65625 41.550781 67.707031 42.484375 68.289062 44.578125 C 69.109375 47.550781 67.585938 48.714844 64.605469 49.46875 C 65.480469 51.394531 67.296875 52.734375 69.632812 52.152344 C 71.457031 51.734375 72.746094 50.113281 72.734375 48.25 C 72.382812 47.734375 72.199219 47.125 72.203125 46.503906 C 72.203125 44.695312 73.726562 43.183594 75.652344 43.183594 C 77.523438 43.183594 79.101562 44.640625 79.101562 46.503906 C 79.4375 49.339844 81.09375 50.5625 82.960938 50.523438 C 85.359375 50.523438 86.765625 48.832031 87.113281 46.734375 C 84.074219 46.734375 82.316406 45.976562 82.316406 42.886719 C 82.316406 40.671875 83.136719 39.566406 85.472656 39.097656 C 86 36.359375 87.460938 36.1875 89.796875 35.835938 C 92.195312 36.242188 93.597656 36.359375 94.121094 39.097656 C 96.457031 39.5625 97.277344 40.671875 97.277344 42.886719 C 97.277344 45.976562 95.527344 46.734375 92.480469 46.734375 C 92.828125 48.832031 94.234375 50.523438 96.632812 50.523438 C 98.488281 50.523438 100.125 49.316406 100.664062 47.550781 C 100.492188 44.695312 102.011719 43.183594 103.941406 43.183594 C 105.867188 43.183594 107.390625 44.640625 107.390625 46.503906 C 107.394531 47.125 107.210938 47.734375 106.859375 48.25 C 106.917969 50.113281 108.089844 51.6875 109.960938 52.152344 C 112.296875 52.734375 114.113281 51.394531 114.988281 49.46875 C 112.007812 48.714844 110.546875 47.542969 111.304688 44.578125 C 111.886719 42.476562 112.9375 41.550781 115.335938 41.667969 C 115.921875 40.503906 116.332031 39.976562 117.5625 39.511719 C 116.21875 26.8125 106.394531 17.777344 92.59375 18.765625 C 92.648438 20.167969 92.414062 20.6875 92.066406 21.214844 L 92.066406 24.421875 C 92.414062 24.945312 92.648438 25.46875 92.648438 26.109375 C 92.648438 26.753906 92.414062 27.277344 92.066406 27.800781 L 92.121094 31.121094 C 92.414062 31.585938 92.648438 32.113281 92.648438 32.695312 C 92.648438 34.621094 91.191406 35.140625 89.730469 35.785156 C 88.269531 35.140625 86.808594 34.558594 86.808594 32.695312 C 86.808594 32.050781 87.042969 31.53125 87.394531 31.003906 L 87.394531 27.859375 C 87.027344 27.367188 86.824219 26.777344 86.808594 26.167969 C 86.808594 25.523438 87.042969 25.003906 87.394531 24.476562 L 87.394531 21.214844 C 87.089844 20.703125 86.929688 20.117188 86.925781 19.523438 Z M 42.273438 55.003906 C 43.382812 57.859375 42.097656 58.96875 39.582031 60.1875 C 41.105469 60.714844 42.328125 61.0625 43.90625 60.246094 C 45.394531 59.488281 46.238281 57.875 46.011719 56.226562 C 45.601562 55.824219 45.300781 55.320312 45.136719 54.769531 C 44.730469 52.957031 45.84375 51.148438 47.652344 50.691406 C 48.667969 50.421875 49.75 50.632812 50.589844 51.257812 C 51.433594 51.878906 51.941406 52.851562 51.976562 53.898438 C 54.605469 57.214844 59.933594 55.46875 59.460938 50.808594 C 56.476562 51.507812 54.605469 51.214844 53.785156 48.242188 C 53.203125 46.144531 53.667969 44.808594 55.832031 43.816406 C 55.703125 42.925781 55.890625 42.019531 56.359375 41.253906 C 54.726562 40.789062 53.4375 39.796875 53.4375 37.988281 C 53.4375 35.773438 55.136719 34.960938 57.003906 34.609375 C 55.894531 33.734375 55.015625 33.035156 55.015625 31.519531 C 55.015625 31.402344 55.015625 31.226562 54.257812 30.992188 C 43.558594 36.0625 40.578125 41.191406 39.644531 52.4375 C 41.105469 52.785156 41.75 53.71875 42.273438 55 Z M 133.253906 65.550781 C 120.101562 59.605469 105.359375 56.226562 89.871094 56.226562 C 74.378906 56.226562 59.703125 59.546875 46.542969 65.488281 C 45.664062 65.898438 44.671875 65.488281 44.261719 64.671875 C 43.851562 63.800781 44.261719 63.15625 44.671875 62.457031 C 41.980469 63.273438 39.992188 63.273438 37.65625 61.519531 C 33.332031 64.320312 28.359375 58.550781 31.632812 55.929688 C 30.113281 54.003906 30.113281 51.910156 32.335938 50.511719 C 31.914062 49.933594 31.6875 49.242188 31.691406 48.53125 C 31.691406 46.375 33.386719 45.5 35.257812 45.148438 C 34.144531 44.332031 33.269531 43.574219 33.269531 42.058594 C 33.269531 39.84375 35.082031 38.914062 37.007812 38.738281 C 36.480469 37.921875 36.070312 37.339844 36.070312 36.347656 C 36.070312 34.542969 37.59375 33.085938 39.519531 33.085938 C 40.105469 33.085938 40.6875 33.257812 41.214844 33.433594 C 40.867188 32.675781 40.570312 32.09375 40.570312 31.277344 C 40.570312 29.46875 42.09375 28.015625 44.019531 28.015625 C 44.957031 28.015625 45.480469 28.363281 46.300781 28.714844 C 46.164062 28.300781 46.085938 27.867188 46.0625 27.433594 C 46.0625 25.625 47.585938 24.113281 49.511719 24.113281 C 50.5625 24.113281 51.148438 24.523438 51.96875 25.046875 C 52.378906 23.300781 53.371094 21.902344 55.414062 21.902344 C 56.9375 21.902344 57.8125 22.71875 58.574219 23.828125 C 59.394531 22.953125 60.152344 22.371094 61.4375 22.371094 C 61.964844 22.371094 62.429688 22.488281 62.960938 22.605469 C 62.644531 22.035156 62.460938 21.398438 62.429688 20.742188 C 62.429688 18.933594 63.953125 17.480469 65.824219 17.480469 C 66.9375 17.480469 67.519531 17.945312 68.398438 18.46875 C 68.339844 18.0625 68.160156 17.535156 68.160156 17.070312 C 68.160156 15.261719 69.683594 13.808594 71.609375 13.808594 C 72.722656 13.808594 73.304688 14.214844 74.125 14.796875 C 74.535156 13.050781 75.53125 11.652344 77.636719 11.652344 C 78.921875 11.652344 79.625 12.179688 80.445312 12.992188 C 81.089844 11.589844 82.023438 10.601562 83.777344 10.601562 C 84.238281 10.613281 84.691406 10.710938 85.117188 10.890625 C 86.015625 9.828125 87.257812 9.105469 88.628906 8.855469 L 88.628906 5.359375 L 85.765625 5.359375 L 85.765625 3.261719 L 88.628906 3.261719 L 88.628906 0.761719 L 90.910156 0.761719 L 90.910156 3.269531 L 93.773438 3.269531 L 93.773438 5.304688 L 90.910156 5.304688 L 90.910156 8.804688 C 92.277344 9.070312 93.511719 9.785156 94.417969 10.839844 C 94.84375 10.660156 95.300781 10.5625 95.761719 10.550781 C 97.515625 10.550781 98.453125 11.597656 99.09375 12.941406 C 99.914062 12.121094 100.671875 11.601562 101.902344 11.601562 C 104.007812 11.601562 105 13.058594 105.351562 14.75 C 106.171875 14.167969 106.808594 13.757812 107.921875 13.757812 C 109.792969 13.757812 111.371094 15.210938 111.371094 17.019531 C 111.371094 17.484375 111.253906 18.011719 111.195312 18.421875 C 112.074219 17.894531 112.65625 17.484375 113.769531 17.484375 C 115.640625 17.484375 117.21875 18.941406 117.21875 20.75 C 117.21875 21.449219 116.980469 21.976562 116.691406 22.613281 C 117.1875 22.472656 117.699219 22.394531 118.210938 22.378906 C 119.5 22.378906 120.257812 22.960938 121.078125 23.832031 C 121.835938 22.667969 122.710938 21.90625 124.234375 21.90625 C 126.339844 21.90625 127.335938 23.363281 127.746094 25.054688 C 128.5625 24.527344 129.148438 24.117188 130.199219 24.117188 C 132.070312 24.117188 133.648438 25.574219 133.648438 27.4375 C 133.648438 27.847656 133.53125 28.3125 133.472656 28.71875 C 134.230469 28.3125 134.816406 28.019531 135.699219 28.019531 C 137.566406 28.019531 139.148438 29.476562 139.148438 31.285156 C 139.148438 32.101562 138.855469 32.683594 138.5 33.382812 C 139.085938 33.207031 139.613281 33.035156 140.253906 33.035156 C 142.125 33.035156 143.703125 34.492188 143.703125 36.296875 C 143.703125 37.289062 143.292969 37.871094 142.765625 38.6875 C 144.753906 38.863281 146.566406 39.796875 146.566406 42.007812 C 146.566406 43.523438 145.691406 44.28125 144.578125 45.097656 C 146.449219 45.507812 148.144531 46.324219 148.144531 48.480469 C 148.144531 49.296875 147.910156 49.816406 147.5 50.460938 C 149.777344 51.859375 149.722656 53.898438 148.199219 55.824219 C 150.1875 57.394531 149.140625 59.84375 147.5 61.125 C 145.800781 62.40625 144.050781 62.640625 142.179688 61.414062 C 139.84375 63.160156 137.855469 63.160156 135.164062 62.351562 L 135.574219 63.167969 C 136.101562 64.621094 134.753906 66.078125 133.238281 65.558594 Z M 51.046875 68.871094 L 48.238281 67.878906 L 48 67.472656 C 47.765625 67.589844 47.589844 67.589844 47.417969 67.644531 C 46.660156 67.699219 46.714844 66.890625 47.070312 66.710938 C 60.050781 60.828125 74.492188 57.5625 89.8125 57.5625 C 105.136719 57.5625 119.578125 60.828125 132.558594 66.710938 C 132.90625 66.882812 132.96875 67.699219 132.210938 67.644531 C 132.035156 67.644531 131.863281 67.589844 131.625 67.472656 L 131.390625 67.878906 L 128.582031 68.871094 L 129.402344 71.960938 L 129.164062 72.488281 C 130.625 73.128906 129.632812 74.175781 128.992188 73.886719 C 117.0625 68.46875 103.789062 65.496094 89.757812 65.496094 C 75.726562 65.496094 62.453125 68.46875 50.523438 73.886719 C 50.230469 74.003906 49.878906 73.886719 49.703125 73.539062 C 49.53125 73.191406 49.703125 72.957031 49.941406 72.722656 C 50.058594 72.605469 50.230469 72.546875 50.40625 72.488281 L 50.167969 71.960938 Z M 66.542969 66.597656 L 72.507812 62.578125 L 65.257812 61.824219 L 59.292969 65.84375 Z M 125.363281 70.328125 C 126.707031 70.328125 127.816406 69.28125 127.816406 67.996094 C 127.816406 66.714844 126.707031 65.667969 125.363281 65.667969 C 124.019531 65.667969 122.90625 66.714844 122.90625 67.996094 C 122.964844 69.28125 124.019531 70.328125 125.363281 70.328125 Z M 77.765625 64.265625 C 79.109375 64.265625 80.21875 63.21875 80.21875 61.933594 C 80.21875 60.652344 79.109375 59.605469 77.765625 59.605469 C 76.421875 59.605469 75.3125 60.652344 75.3125 61.933594 C 75.3125 63.21875 76.421875 64.265625 77.765625 64.265625 Z M 54.375 70.328125 C 55.71875 70.328125 56.832031 69.28125 56.832031 67.996094 C 56.832031 66.714844 55.78125 65.667969 54.375 65.667969 C 53.035156 65.667969 51.921875 66.714844 51.921875 67.996094 C 51.921875 69.28125 53.035156 70.328125 54.375 70.328125 Z M 101.972656 64.265625 C 103.316406 64.265625 104.429688 63.21875 104.429688 61.933594 C 104.429688 60.652344 103.316406 59.605469 101.972656 59.605469 C 101.34375 59.597656 100.738281 59.835938 100.289062 60.273438 C 99.839844 60.710938 99.582031 61.308594 99.574219 61.933594 C 99.574219 63.21875 100.6875 64.265625 101.972656 64.265625 Z M 113.203125 66.59375 L 120.453125 65.835938 L 114.488281 61.816406 L 107.238281 62.574219 Z M 97.476562 61.292969 L 89.871094 58.558594 L 82.269531 61.296875 L 89.871094 64.035156 Z M 11.167969 154.300781 C 11.167969 195.964844 46.597656 230.050781 89.871094 230.050781 C 133.199219 230.050781 168.628906 195.964844 168.628906 154.300781 C 168.628906 112.519531 133.199219 78.550781 89.871094 78.550781 C 46.542969 78.550781 11.167969 112.519531 11.167969 154.300781 Z M 177.167969 154.300781 C 177.167969 200.507812 137.988281 238.269531 89.871094 238.269531 C 41.75 238.269531 2.574219 200.507812 2.574219 154.300781 C 2.574219 108.035156 41.75 70.277344 89.871094 70.277344 C 137.988281 70.21875 177.167969 107.976562 177.167969 154.300781 Z M 78.410156 118.578125 L 89.8125 129.765625 L 100.457031 118.929688 C 96.714844 117.996094 93.148438 117.300781 89.230469 117.183594 C 85.605469 117.007812 81.921875 117.828125 78.410156 118.582031 Z M 108.40625 110.769531 L 125.125 94.160156 C 146.761719 106.105469 161.320312 128.480469 161.320312 154.058594 C 161.320312 170.722656 155.183594 185.992188 144.832031 197.9375 L 137.050781 190.421875 C 145.820312 180.105469 151.554688 169.851562 151.554688 153.421875 C 151.554688 135.882812 142.023438 116.304688 126.824219 106.167969 L 116.769531 116.074219 C 121.914062 119.804688 126.007812 123.53125 129.457031 128.777344 L 121.796875 135.128906 C 118.757812 130 114.835938 126.390625 109.808594 123.066406 L 89.8125 143.347656 L 69.054688 122.773438 C 58.296875 130 51.976562 140.3125 51.6875 153.136719 C 51.339844 170.207031 62.796875 182.035156 78.878906 187.226562 L 78.878906 152.960938 L 103.433594 152.960938 L 103.433594 160.015625 L 88.410156 160.015625 L 88.410156 169.160156 L 103.261719 169.160156 L 103.261719 177.207031 L 88.410156 177.207031 L 88.410156 188.742188 C 99.402344 189.269531 111.152344 183.148438 118.285156 175.570312 L 125.65625 182.734375 C 116.242188 193.226562 102.675781 198.527344 88.464844 198.644531 L 88.464844 209.191406 L 78.933594 209.191406 L 78.933594 197.535156 C 57.242188 192.351562 41.515625 174.054688 41.804688 152.203125 C 41.980469 137.226562 50.28125 124.929688 62.332031 116.191406 L 52.15625 106.054688 C 36.371094 118.464844 27.894531 133.617188 27.191406 153.308594 C 26.664062 170.734375 36.019531 184.71875 41.925781 190.601562 L 35.082031 197.300781 C 24.5 185.410156 18.242188 170.730469 18.242188 154.003906 C 18.242188 128.597656 32.800781 106.222656 54.257812 94.277344 L 71.214844 111.292969 C 77.238281 109.078125 83.496094 107.914062 89.925781 107.914062 C 96.058594 108.003906 102.132812 109.148438 107.878906 111.292969 Z M 108.40625 110.769531 "/>
<path style=" stroke:none;fill-rule:nonzero;fill:rgb(0%,28.627452%,58.823532%);fill-opacity:1;" d="M 179.738281 154.300781 C 179.738281 201.90625 139.394531 240.769531 89.871094 240.769531 C 40.285156 240.769531 0 201.90625 0 154.300781 C 0 106.632812 40.347656 67.710938 89.871094 67.710938 C 139.457031 67.710938 179.738281 106.636719 179.738281 154.300781 Z M 177.167969 154.300781 C 177.167969 108.035156 137.988281 70.277344 89.871094 70.277344 C 41.75 70.277344 2.574219 108.03125 2.574219 154.300781 C 2.574219 200.507812 41.75 238.269531 89.871094 238.269531 C 137.988281 238.269531 177.167969 200.507812 177.167969 154.300781 Z M 13.738281 154.300781 C 13.738281 194.5625 48 227.542969 89.871094 227.542969 C 131.738281 227.542969 166 194.621094 166 154.300781 C 166 113.917969 131.738281 81.113281 89.871094 81.113281 C 48.007812 81.058594 13.738281 113.917969 13.738281 154.300781 Z M 11.167969 154.300781 C 11.167969 112.519531 46.597656 78.550781 89.871094 78.550781 C 133.199219 78.550781 168.628906 112.519531 168.628906 154.300781 C 168.628906 195.964844 133.199219 230.050781 89.871094 230.050781 C 46.542969 229.996094 11.167969 195.964844 11.167969 154.300781 Z M 99.105469 137.574219 L 141.667969 179.820312 C 146.523438 172.128906 148.976562 164.265625 148.976562 153.367188 C 148.976562 134.367188 137.867188 117.066406 127.164062 109.375 L 120.734375 115.726562 C 125.585938 119.4375 129.691406 124.023438 132.839844 129.246094 L 121.027344 139.09375 C 118.21875 133.730469 115.234375 129.945312 110.152344 126.390625 Z M 153.070312 191.125 C 145.410156 203.652344 133.714844 213.5625 119.859375 219.507812 L 112.964844 212.746094 L 100.105469 200.097656 C 97.125 200.746094 94.085938 201.097656 91.039062 201.144531 L 91.039062 211.753906 L 76.304688 211.753906 L 76.304688 199.515625 C 54.203125 193.746094 38.941406 173.820312 39.175781 152.203125 C 39.234375 148.589844 39.761719 145.09375 40.636719 141.710938 L 33.386719 134.601562 C 31.222656 140.429688 29.992188 146.722656 29.765625 153.421875 C 29.355469 166.820312 35.4375 181.332031 45.554688 190.59375 L 34.910156 201.023438 C 22.394531 187.503906 15.554688 172.296875 15.554688 154 C 15.554688 127.308594 30.757812 104 54.667969 91.183594 L 71.800781 108.429688 C 77.472656 106.445312 83.90625 105.457031 89.808594 105.457031 C 96.183594 105.511719 101.96875 106.621094 107.175781 108.429688 L 124.597656 91.003906 C 148.691406 103.882812 163.890625 127.191406 163.890625 154.046875 C 163.945312 167.683594 160.148438 180.039062 153.070312 191.109375 Z M 76.238281 176.734375 L 54.257812 155.171875 C 54.785156 167.238281 62.441406 178.65625 76.242188 183.726562 Z M 108.40625 110.769531 L 107.820312 111.351562 C 102.09375 109.152344 96.007812 108.007812 89.871094 107.976562 C 83.4375 107.976562 77.179688 109.140625 71.160156 111.355469 L 54.203125 94.339844 C 32.746094 106.230469 18.1875 128.601562 18.1875 154.007812 C 18.1875 170.789062 24.445312 185.417969 35.027344 197.304688 L 41.867188 190.605469 C 35.964844 184.722656 26.605469 170.734375 27.136719 153.316406 C 27.835938 133.617188 36.3125 118.46875 52.101562 106.0625 L 62.273438 116.199219 C 50.230469 124.9375 41.925781 137.234375 41.75 152.207031 C 41.457031 174.058594 57.128906 192.351562 78.878906 197.542969 L 78.878906 209.195312 L 88.410156 209.195312 L 88.410156 198.636719 C 102.675781 198.519531 116.242188 193.21875 125.597656 182.730469 L 118.230469 175.566406 C 111.097656 183.140625 99.402344 189.320312 88.351562 188.738281 L 88.351562 177.199219 L 103.203125 177.199219 L 103.203125 169.15625 L 88.351562 169.15625 L 88.351562 160.011719 L 103.378906 160.011719 L 103.378906 152.957031 L 78.820312 152.957031 L 78.820312 187.21875 C 62.742188 182.035156 51.226562 170.203125 51.628906 153.128906 C 51.921875 140.3125 58.234375 129.996094 68.996094 122.769531 L 89.757812 143.339844 L 109.753906 123.0625 C 114.84375 126.378906 118.699219 129.996094 121.738281 135.125 L 129.402344 128.769531 C 125.953125 123.523438 121.859375 119.796875 116.710938 116.070312 L 126.765625 106.160156 C 141.972656 116.296875 151.496094 135.878906 151.496094 153.417969 C 151.496094 169.789062 145.769531 180.105469 136.996094 190.414062 L 144.773438 197.933594 C 155.417969 185.777344 161.277344 170.1875 161.265625 154.054688 C 161.265625 128.472656 146.707031 106.101562 125.070312 94.15625 Z M 78.410156 118.578125 C 81.921875 117.820312 85.601562 117.003906 89.230469 117.121094 C 93.144531 117.238281 96.710938 117.9375 100.457031 118.867188 L 89.8125 129.703125 Z M 83.613281 120.09375 L 89.75 126.15625 L 95.480469 120.328125 C 93.4375 119.921875 91.332031 119.746094 89.105469 119.683594 C 87.761719 119.628906 85.714844 119.804688 83.605469 120.09375 Z M 129.339844 69.222656 L 129.867188 71.261719 L 130.101562 71.960938 L 130.511719 71.726562 L 132.5 70.679688 L 131.972656 68.699219 L 131.855469 68.289062 Z M 133.253906 65.550781 C 134.777344 66.078125 136.117188 64.5625 135.417969 63.277344 L 135.007812 62.460938 C 137.699219 63.277344 139.6875 63.277344 142.023438 61.527344 C 143.894531 62.753906 145.589844 62.519531 147.339844 61.234375 C 149.039062 59.953125 150.03125 57.507812 148.042969 55.933594 C 149.566406 54.007812 149.621094 51.914062 147.339844 50.574219 C 147.75 49.929688 147.988281 49.410156 147.988281 48.589844 C 147.988281 46.4375 146.292969 45.5625 144.421875 45.210938 C 145.53125 44.335938 146.410156 43.636719 146.410156 42.121094 C 146.410156 39.902344 144.59375 38.972656 142.605469 38.800781 C 143.132812 37.984375 143.542969 37.464844 143.542969 36.410156 C 143.542969 34.601562 142.023438 33.148438 140.097656 33.148438 C 139.511719 33.148438 138.925781 33.320312 138.34375 33.496094 C 138.691406 32.738281 138.988281 32.210938 138.988281 31.394531 C 138.988281 29.585938 137.46875 28.132812 135.539062 28.132812 C 134.601562 28.132812 134.082031 28.421875 133.316406 28.832031 C 133.371094 28.421875 133.492188 27.957031 133.492188 27.550781 C 133.457031 25.683594 131.914062 24.199219 130.042969 24.230469 C 128.992188 24.230469 128.40625 24.640625 127.585938 25.164062 C 127.175781 23.417969 126.183594 22.019531 124.078125 22.019531 C 122.554688 22.019531 121.679688 22.835938 120.917969 23.945312 C 120.101562 23.070312 119.339844 22.488281 118.054688 22.488281 C 117.527344 22.488281 117.003906 22.605469 116.53125 22.726562 C 116.824219 22.082031 117.0625 21.558594 117.0625 20.859375 C 117.0625 19.054688 115.539062 17.597656 113.613281 17.597656 C 112.5 17.597656 111.914062 18.007812 111.039062 18.53125 C 111.097656 18.125 111.214844 17.597656 111.214844 17.132812 C 111.214844 15.324219 109.691406 13.871094 107.765625 13.871094 C 106.652344 13.871094 106.070312 14.277344 105.191406 14.859375 C 104.78125 13.113281 103.789062 11.714844 101.742188 11.714844 C 100.457031 11.714844 99.753906 12.242188 98.933594 13.050781 C 98.234375 11.652344 97.355469 10.660156 95.605469 10.660156 C 95.078125 10.660156 94.726562 10.78125 94.261719 10.953125 C 93.363281 9.886719 92.125 9.167969 90.75 8.914062 L 90.75 5.417969 L 93.617188 5.417969 L 93.617188 3.261719 L 90.75 3.261719 L 90.75 0.761719 L 88.472656 0.761719 L 88.472656 3.269531 L 85.605469 3.269531 L 85.605469 5.304688 L 88.472656 5.304688 L 88.472656 8.804688 C 87.011719 9.152344 86.074219 9.675781 84.960938 10.839844 C 84.535156 10.660156 84.078125 10.5625 83.617188 10.550781 C 81.867188 10.550781 80.929688 11.597656 80.289062 12.941406 C 79.46875 12.121094 78.710938 11.601562 77.480469 11.601562 C 75.371094 11.601562 74.378906 13.058594 73.96875 14.75 C 73.148438 14.167969 72.507812 13.757812 71.453125 13.757812 C 69.582031 13.757812 68.003906 15.210938 68.003906 17.019531 C 68.003906 17.484375 68.121094 18.011719 68.238281 18.421875 C 67.363281 17.894531 66.71875 17.429688 65.667969 17.429688 C 64.78125 17.414062 63.925781 17.746094 63.292969 18.359375 C 62.65625 18.972656 62.289062 19.8125 62.273438 20.691406 C 62.273438 21.390625 62.511719 21.917969 62.800781 22.558594 C 62.273438 22.4375 61.808594 22.320312 61.28125 22.320312 C 59.992188 22.320312 59.234375 22.902344 58.414062 23.777344 C 57.65625 22.613281 56.78125 21.851562 55.257812 21.851562 C 53.152344 21.851562 52.15625 23.308594 51.808594 24.996094 C 51.164062 24.53125 50.523438 24.125 49.472656 24.125 C 47.601562 24.09375 46.058594 25.578125 46.023438 27.445312 C 46.023438 27.851562 46.140625 28.316406 46.199219 28.726562 C 45.542969 28.277344 44.765625 28.03125 43.96875 28.027344 C 42.097656 28.027344 40.519531 29.480469 40.519531 31.289062 C 40.519531 32.105469 40.8125 32.6875 41.164062 33.386719 C 40.636719 33.269531 40.117188 33.097656 39.46875 33.097656 C 37.597656 33.097656 36.019531 34.550781 36.019531 36.359375 C 36.019531 37.351562 36.429688 37.933594 36.957031 38.75 C 35.027344 38.925781 33.273438 39.859375 33.273438 42.070312 C 33.273438 43.585938 34.152344 44.34375 35.261719 45.160156 C 33.390625 45.566406 31.695312 46.386719 31.695312 48.539062 C 31.695312 49.359375 31.933594 49.878906 32.34375 50.523438 C 30.117188 51.921875 30.117188 54.019531 31.640625 55.941406 C 28.363281 58.558594 33.335938 64.386719 37.660156 61.53125 C 39.996094 63.277344 41.984375 63.277344 44.675781 62.46875 C 44.328125 63.222656 43.855469 63.867188 44.265625 64.683594 C 44.453125 65.097656 44.804688 65.421875 45.234375 65.574219 C 45.664062 65.730469 46.136719 65.703125 46.546875 65.5 C 59.703125 59.554688 74.378906 56.238281 89.875 56.238281 C 105.429688 56.292969 120.105469 59.617188 133.261719 65.5625 Z M 50.398438 69.222656 L 48.585938 68.578125 L 47.882812 68.34375 L 47.765625 68.753906 L 47.238281 70.679688 L 49.226562 71.726562 L 49.636719 71.960938 L 49.808594 71.203125 Z M 49.230469 72.371094 L 46.601562 70.96875 L 47.25 68.460938 C 46.253906 68.34375 45.789062 67.238281 46.253906 66.480469 C 45.148438 66.640625 44.0625 66.078125 43.5625 65.082031 C 43.328125 64.617188 43.273438 64.148438 43.328125 63.683594 C 41.355469 64.078125 39.308594 63.65625 37.65625 62.519531 C 33.039062 65.199219 27.601562 58.789062 30.578125 55.816406 C 29.234375 53.890625 29.585938 51.5625 31.28125 50.28125 C 30.996094 49.746094 30.851562 49.144531 30.871094 48.535156 C 30.871094 46.84375 31.980469 45.390625 33.5 44.746094 C 32.824219 44.015625 32.449219 43.058594 32.449219 42.0625 C 32.449219 40.140625 33.851562 38.566406 35.667969 38.101562 C 35.382812 37.5625 35.238281 36.960938 35.257812 36.355469 C 35.257812 34.082031 37.128906 32.273438 39.46875 32.273438 L 39.878906 32.273438 C 39.585938 31.035156 39.878906 29.730469 40.679688 28.738281 C 41.480469 27.746094 42.699219 27.179688 43.972656 27.203125 C 44.410156 27.199219 44.84375 27.257812 45.261719 27.375 C 45.261719 25.160156 47.191406 23.355469 49.472656 23.355469 C 50.144531 23.359375 50.808594 23.519531 51.40625 23.820312 C 51.988281 22.25 53.566406 21.140625 55.382812 21.140625 C 56.644531 21.136719 57.84375 21.695312 58.65625 22.65625 C 59.441406 21.996094 60.4375 21.644531 61.464844 21.667969 L 61.757812 21.667969 C 61.703125 21.375 61.640625 21.085938 61.640625 20.792969 C 61.640625 18.519531 63.511719 16.714844 65.851562 16.714844 C 66.4375 16.714844 66.964844 16.832031 67.429688 17.003906 C 67.488281 14.789062 69.363281 12.984375 71.644531 12.984375 C 72.402344 12.984375 73.101562 13.160156 73.6875 13.511719 C 74.273438 11.9375 75.851562 10.828125 77.664062 10.828125 C 78.660156 10.828125 79.535156 11.121094 80.238281 11.703125 C 80.996094 10.59375 82.28125 9.839844 83.804688 9.839844 C 84.214844 9.839844 84.5625 9.894531 84.914062 10.011719 C 85.617188 9.3125 86.4375 8.785156 87.433594 8.382812 L 87.84375 8.210938 L 87.84375 6.109375 L 84.976562 6.109375 L 84.976562 2.507812 L 87.84375 2.507812 L 87.84375 0 L 91.757812 0 L 91.757812 2.507812 L 94.621094 2.507812 L 94.621094 6.117188 L 91.757812 6.117188 L 91.757812 8.214844 L 92.167969 8.390625 C 93.121094 8.726562 93.984375 9.285156 94.683594 10.019531 C 95.03125 9.902344 95.386719 9.84375 95.796875 9.84375 C 97.316406 9.84375 98.605469 10.601562 99.363281 11.707031 C 100.0625 11.183594 100.996094 10.835938 101.933594 10.835938 C 103.75 10.835938 105.328125 11.945312 105.910156 13.515625 C 106.496094 13.167969 107.199219 12.992188 107.957031 12.992188 C 110.292969 12.992188 112.167969 14.796875 112.167969 17.007812 C 112.636719 16.835938 113.164062 16.71875 113.746094 16.71875 C 116.082031 16.71875 117.960938 18.527344 117.960938 20.800781 C 117.960938 21.089844 117.960938 21.382812 117.839844 21.671875 L 118.132812 21.671875 C 119.152344 21.6875 120.140625 22.035156 120.941406 22.664062 C 121.699219 21.726562 122.875 21.144531 124.21875 21.144531 C 126.03125 21.144531 127.609375 22.253906 128.195312 23.828125 C 128.792969 23.523438 129.453125 23.363281 130.125 23.363281 C 132.460938 23.363281 134.339844 25.171875 134.339844 27.382812 C 134.757812 27.261719 135.191406 27.203125 135.625 27.207031 C 137.960938 27.207031 139.835938 29.015625 139.835938 31.289062 C 139.835938 31.636719 139.78125 31.988281 139.71875 32.335938 L 140.128906 32.335938 C 142.464844 32.335938 144.34375 34.144531 144.34375 36.417969 C 144.34375 37.058594 144.167969 37.640625 143.933594 38.164062 C 145.800781 38.570312 147.152344 40.199219 147.152344 42.125 C 147.144531 43.148438 146.75 44.125 146.039062 44.863281 C 147.648438 45.433594 148.726562 46.949219 148.730469 48.652344 C 148.730469 49.296875 148.554688 49.878906 148.320312 50.398438 C 150.015625 51.679688 150.363281 54.007812 149.019531 55.933594 C 150.890625 57.800781 149.257812 60.769531 147.679688 61.996094 C 146.15625 63.160156 143.992188 63.859375 141.886719 62.640625 C 140.253906 63.75 138.203125 64.214844 136.214844 63.804688 C 136.449219 65.433594 134.929688 66.832031 133.292969 66.605469 C 133.761719 67.359375 133.292969 68.46875 132.300781 68.585938 L 132.945312 71.09375 L 130.316406 72.492188 C 130.664062 72.902344 130.726562 73.484375 130.492188 74.007812 C 130.144531 74.710938 129.324219 75.117188 128.558594 74.765625 C 116.746094 69.402344 103.59375 66.429688 89.617188 66.429688 C 76.207031 66.398438 62.945312 69.242188 50.730469 74.765625 C 49.972656 75.113281 49.152344 74.710938 48.800781 74.007812 C 48.855469 73.367188 48.917969 72.785156 49.265625 72.378906 Z M 51.046875 68.871094 L 50.226562 71.960938 L 50.460938 72.488281 C 50.34375 72.542969 50.167969 72.605469 49.996094 72.722656 C 49.761719 72.894531 49.585938 73.128906 49.761719 73.539062 C 49.933594 73.886719 50.289062 74.003906 50.578125 73.886719 C 62.511719 68.46875 75.78125 65.496094 89.8125 65.496094 C 103.90625 65.496094 117.117188 68.46875 129.046875 73.886719 C 129.632812 74.175781 130.683594 73.128906 129.222656 72.488281 L 129.457031 71.960938 L 128.636719 68.871094 L 131.445312 67.878906 L 131.683594 67.472656 C 131.917969 67.589844 132.089844 67.589844 132.265625 67.644531 C 133.023438 67.699219 132.96875 66.890625 132.613281 66.710938 C 119.1875 60.644531 104.609375 57.527344 89.871094 57.570312 C 74.550781 57.570312 60.105469 60.832031 47.125 66.714844 C 46.777344 66.890625 46.714844 67.707031 47.472656 67.652344 C 47.648438 67.652344 47.820312 67.59375 48.058594 67.476562 L 48.230469 67.886719 Z M 115.246094 32.863281 C 111.914062 24.761719 104.082031 18.992188 93.671875 19.515625 C 93.671875 20.21875 93.4375 20.855469 93.089844 21.441406 L 93.089844 24.179688 C 93.4375 24.761719 93.671875 25.40625 93.671875 26.105469 C 93.671875 26.804688 93.4375 27.503906 93.089844 28.03125 L 93.089844 29.777344 C 100.222656 28.84375 108.640625 29.542969 115.246094 32.867188 Z M 93.027344 30.824219 C 94.058594 32.363281 93.695312 34.4375 92.207031 35.542969 C 93.492188 35.953125 94.488281 36.882812 94.835938 38.515625 C 97.40625 39.097656 98.109375 40.960938 98.109375 42.941406 C 98.109375 45.332031 97.117188 47.371094 93.492188 47.542969 C 93.902344 48.882812 95.1875 49.816406 96.710938 49.816406 C 98.132812 49.828125 99.402344 48.9375 99.867188 47.601562 C 99.75 47.253906 99.75 46.902344 99.75 46.554688 C 99.75 44.28125 101.683594 42.472656 104.019531 42.472656 C 106.355469 42.472656 108.289062 44.28125 108.289062 46.554688 C 108.289062 47.253906 108.113281 47.890625 107.757812 48.480469 C 107.816406 49.878906 108.808594 51.042969 110.277344 51.453125 C 111.734375 51.796875 113.195312 51.214844 113.960938 49.996094 C 110.511719 48.949219 110.046875 46.734375 110.6875 44.402344 C 111.214844 42.476562 112.382812 40.847656 114.953125 40.90625 C 115.421875 39.972656 116.066406 39.386719 116.824219 39.042969 C 116.589844 37.117188 116.179688 35.3125 115.484375 33.5625 C 108.699219 29.949219 99.875 29.308594 93.03125 30.296875 Z M 86.945312 19.515625 C 86.945312 20.160156 87.179688 20.683594 87.527344 21.207031 L 87.527344 24.414062 C 87.179688 24.941406 86.945312 25.460938 86.945312 26.105469 C 86.945312 26.75 87.179688 27.269531 87.527344 27.796875 L 87.527344 31.058594 C 87.179688 31.585938 86.945312 32.105469 86.945312 32.75 C 86.945312 34.675781 88.402344 35.195312 89.863281 35.839844 C 91.324219 35.195312 92.785156 34.613281 92.785156 32.75 C 92.785156 32.167969 92.609375 31.585938 92.257812 31.175781 L 92.199219 27.859375 C 92.550781 27.332031 92.785156 26.8125 92.785156 26.167969 C 92.785156 25.523438 92.550781 25.003906 92.199219 24.476562 L 92.199219 21.214844 C 92.550781 20.6875 92.785156 20.167969 92.785156 19.523438 C 92.785156 19.289062 92.730469 19.058594 92.730469 18.765625 C 106.46875 17.777344 116.351562 26.8125 117.695312 39.511719 C 116.464844 39.976562 116 40.503906 115.472656 41.667969 C 113.074219 41.550781 112.023438 42.484375 111.4375 44.578125 C 110.617188 47.550781 112.140625 48.714844 115.125 49.46875 C 114.246094 51.394531 112.433594 52.734375 110.097656 52.152344 C 108.273438 51.734375 106.984375 50.113281 106.996094 48.25 C 107.34375 47.734375 107.527344 47.125 107.523438 46.503906 C 107.488281 44.636719 105.945312 43.152344 104.074219 43.183594 C 102.203125 43.152344 100.660156 44.636719 100.625 46.503906 C 100.273438 49.328125 98.628906 50.542969 96.765625 50.523438 C 94.367188 50.523438 92.964844 48.832031 92.617188 46.734375 C 95.65625 46.734375 97.414062 45.976562 97.414062 42.886719 C 97.414062 40.671875 96.59375 39.566406 94.257812 39.097656 C 93.730469 36.359375 92.269531 36.1875 89.929688 35.835938 C 87.53125 36.242188 86.128906 36.359375 85.605469 39.097656 C 83.269531 39.5625 82.449219 40.671875 82.449219 42.886719 C 82.449219 45.976562 84.203125 46.734375 87.246094 46.734375 C 86.898438 48.832031 85.496094 50.523438 83.097656 50.523438 C 81.242188 50.523438 79.605469 49.316406 79.0625 47.550781 C 79.203125 44.636719 77.660156 43.152344 75.789062 43.183594 C 73.855469 43.183594 72.339844 44.640625 72.339844 46.503906 C 72.335938 47.125 72.519531 47.734375 72.867188 48.25 C 72.8125 50.113281 71.636719 51.6875 69.765625 52.152344 C 67.429688 52.734375 65.617188 51.394531 64.738281 49.46875 C 67.722656 48.714844 69.183594 47.542969 68.425781 44.578125 C 67.839844 42.476562 66.789062 41.550781 64.390625 41.667969 C 63.808594 40.503906 63.398438 39.976562 62.167969 39.511719 C 63.511719 26.8125 73.332031 17.777344 87.132812 18.765625 Z M 64.199219 33.625 C 63.554688 35.371094 63.089844 37.175781 62.914062 39.101562 C 63.671875 39.449219 64.320312 40.039062 64.785156 40.96875 C 67.414062 40.910156 68.585938 42.539062 69.109375 44.464844 C 69.753906 46.792969 69.285156 49.011719 65.835938 50.058594 C 66.59375 51.222656 68.058594 51.867188 69.519531 51.511719 C 70.980469 51.160156 71.972656 49.941406 72.035156 48.539062 C 71.683594 47.960938 71.503906 47.292969 71.507812 46.613281 C 71.507812 44.34375 73.441406 42.535156 75.777344 42.535156 C 78.113281 42.535156 80.046875 44.34375 80.046875 46.613281 C 80.046875 46.960938 79.988281 47.316406 79.929688 47.660156 C 80.410156 48.988281 81.667969 49.875 83.085938 49.878906 C 84.605469 49.878906 85.832031 48.945312 86.304688 47.605469 C 82.679688 47.433594 81.6875 45.390625 81.6875 43.003906 C 81.6875 40.96875 82.386719 39.160156 84.960938 38.578125 C 85.253906 37.195312 86.25 36.066406 87.589844 35.605469 C 86.722656 34.929688 86.207031 33.902344 86.183594 32.804688 C 86.183594 32.105469 86.421875 31.40625 86.769531 30.878906 L 86.769531 30.296875 C 79.808594 29.363281 70.980469 30.007812 64.199219 33.617188 Z M 86.128906 19.523438 C 75.664062 18.941406 67.886719 24.769531 64.492188 32.867188 C 71.042969 29.605469 79.519531 28.785156 86.652344 29.777344 L 86.652344 28.027344 C 86.304688 27.445312 86.066406 26.800781 86.066406 26.101562 C 86.066406 25.398438 86.304688 24.699219 86.652344 24.175781 L 86.652344 21.4375 C 86.320312 20.847656 86.136719 20.1875 86.125 19.511719 Z M 128.695312 56.585938 L 128.929688 56.410156 C 129.394531 56.757812 129.804688 56.992188 130.390625 57.167969 C 130.625 57.222656 130.917969 57.222656 131.148438 57.285156 C 131.441406 58.738281 131.96875 59.902344 133.019531 60.957031 L 132.550781 61.601562 C 130.035156 60.535156 127.480469 59.5625 124.890625 58.6875 L 125.007812 57.933594 C 126.296875 57.816406 127.636719 57.351562 128.695312 56.59375 Z M 128.929688 57.339844 C 128.226562 57.804688 127.40625 58.15625 126.59375 58.386719 C 128.222656 58.972656 129.84375 59.59375 131.445312 60.25 C 130.984375 59.558594 130.648438 58.789062 130.453125 57.976562 L 130.214844 57.921875 C 129.75 57.804688 129.339844 57.574219 128.929688 57.339844 Z M 89.460938 47.492188 L 90.28125 47.492188 C 90.570312 49.59375 91.976562 51.394531 93.902344 52.273438 L 93.730469 53.03125 C 92.441406 52.972656 91.15625 52.972656 89.871094 52.972656 C 88.582031 52.972656 87.296875 52.972656 86.011719 53.03125 L 85.835938 52.273438 C 87.769531 51.339844 89.167969 49.59375 89.460938 47.492188 Z M 89.871094 49.066406 C 89.402344 50.292969 88.582031 51.339844 87.472656 52.15625 C 88.292969 52.15625 89.050781 52.101562 89.871094 52.101562 C 90.667969 52.089844 91.46875 52.109375 92.269531 52.15625 C 91.199219 51.363281 90.371094 50.292969 89.871094 49.0625 Z M 47.242188 61.539062 L 46.777344 60.894531 C 47.828125 59.785156 48.355469 58.675781 48.648438 57.222656 C 49.4375 57.191406 50.195312 56.902344 50.808594 56.40625 C 52.039062 57.277344 53.265625 57.804688 54.785156 57.859375 L 54.90625 58.617188 C 52.316406 59.492188 49.757812 60.460938 47.242188 61.527344 Z M 48.355469 60.257812 C 49.960938 59.601562 51.578125 58.976562 53.207031 58.390625 C 52.386719 58.15625 51.574219 57.808594 50.871094 57.34375 C 50.523438 57.582031 50.050781 57.753906 49.640625 57.871094 L 49.40625 57.925781 C 49.113281 58.746094 48.820312 59.554688 48.355469 60.257812 Z M 67.359375 54.484375 L 67.359375 55.242188 C 64.878906 55.753906 62.421875 56.355469 59.988281 57.050781 L 59.640625 56.347656 C 61.21875 55.011719 62.15625 52.96875 61.863281 50.871094 L 62.621094 50.695312 C 63.441406 52.675781 65.25 54.078125 67.359375 54.484375 Z M 65.722656 54.777344 C 64.511719 54.269531 63.460938 53.441406 62.683594 52.386719 C 62.511719 53.667969 62.039062 54.894531 61.222656 55.882812 C 62.683594 55.476562 64.207031 55.128906 65.730469 54.777344 Z M 72.5625 54.25 L 72.273438 53.550781 C 73.734375 52.617188 74.671875 51.394531 75.253906 49.824219 L 75.722656 49.824219 C 76.1875 49.824219 76.539062 49.703125 77.007812 49.585938 C 78 50.988281 79.167969 51.976562 80.867188 52.441406 L 80.808594 53.199219 C 78.054688 53.480469 75.304688 53.832031 72.5625 54.246094 Z M 75.839844 50.640625 C 75.429688 51.628906 74.789062 52.503906 73.96875 53.257812 L 79.167969 52.617188 C 78.199219 52.113281 77.359375 51.394531 76.714844 50.515625 C 76.421875 50.574219 76.132812 50.632812 75.839844 50.632812 Z M 98.933594 53.257812 L 98.878906 52.503906 C 100.449219 52.007812 101.808594 51.003906 102.738281 49.648438 C 103.203125 49.765625 103.558594 49.882812 104.023438 49.882812 L 104.492188 49.882812 C 105.074219 51.457031 106.011719 52.683594 107.472656 53.613281 L 107.179688 54.3125 C 104.492188 53.847656 101.742188 53.496094 98.933594 53.265625 Z M 103.90625 50.640625 C 102.441406 51.394531 101.5625 52.09375 100.570312 52.621094 C 102.324219 52.792969 104.082031 52.96875 105.769531 53.265625 C 105.019531 52.566406 104.40625 51.738281 103.957031 50.820312 Z M 120.160156 56.347656 L 119.8125 57.050781 C 117.414062 56.347656 114.960938 55.765625 112.445312 55.242188 L 112.445312 54.484375 C 114.488281 54.078125 116.304688 52.675781 117.121094 50.757812 L 117.882812 50.929688 C 117.648438 53.007812 118.511719 55.058594 120.160156 56.347656 Z M 118.582031 55.882812 C 117.761719 54.894531 117.242188 53.667969 117.121094 52.386719 C 116.363281 53.433594 115.253906 54.25 114.085938 54.777344 L 118.589844 55.882812 Z M 119.75 42.539062 C 117.9375 42.074219 116.066406 43.121094 115.601562 44.867188 C 115.132812 46.613281 116.246094 48.421875 118.054688 48.832031 C 119.871094 49.296875 121.738281 48.25 122.207031 46.503906 C 122.671875 44.757812 121.558594 42.949219 119.75 42.539062 Z M 119.871094 42.015625 C 121.976562 42.539062 123.261719 44.578125 122.734375 46.613281 C 122.207031 48.652344 120.042969 49.878906 117.9375 49.351562 C 116.941406 49.128906 116.078125 48.515625 115.539062 47.648438 C 115 46.785156 114.832031 45.742188 115.074219 44.75 C 115.601562 42.714844 117.761719 41.488281 119.871094 42.015625 Z M 122.851562 36.128906 C 121.800781 36.128906 120.980469 36.949219 120.980469 37.9375 C 120.980469 38.929688 121.859375 39.746094 122.851562 39.746094 C 123.902344 39.746094 124.722656 38.929688 124.722656 37.9375 C 124.726562 37.449219 124.53125 36.976562 124.175781 36.636719 C 123.824219 36.292969 123.34375 36.109375 122.851562 36.128906 Z M 122.851562 35.605469 C 124.195312 35.605469 125.304688 36.652344 125.304688 37.933594 C 125.304688 39.214844 124.195312 40.261719 122.851562 40.261719 C 121.507812 40.261719 120.398438 39.214844 120.398438 37.933594 C 120.398438 36.652344 121.507812 35.605469 122.851562 35.605469 Z M 121.273438 29.605469 C 120.222656 29.605469 119.402344 30.421875 119.402344 31.414062 C 119.402344 32.402344 120.28125 33.21875 121.273438 33.21875 C 122.324219 33.21875 123.144531 32.402344 123.144531 31.414062 C 123.144531 30.421875 122.324219 29.605469 121.273438 29.605469 Z M 121.273438 29.078125 C 122.617188 29.078125 123.726562 30.125 123.726562 31.40625 C 123.726562 32.6875 122.617188 33.734375 121.273438 33.734375 C 119.929688 33.734375 118.820312 32.6875 118.820312 31.40625 C 118.820312 30.125 119.929688 29.078125 121.273438 29.078125 Z M 144.664062 46.734375 C 143.613281 46.734375 142.792969 47.550781 142.792969 48.539062 C 142.792969 49.53125 143.613281 50.347656 144.664062 50.347656 C 145.710938 50.347656 146.53125 49.53125 146.53125 48.539062 C 146.53125 47.550781 145.710938 46.734375 144.664062 46.734375 Z M 144.664062 46.207031 C 146.003906 46.207031 147.117188 47.253906 147.117188 48.535156 C 147.117188 49.816406 146.003906 50.863281 144.664062 50.863281 C 143.320312 50.863281 142.207031 49.816406 142.207031 48.535156 C 142.207031 47.253906 143.320312 46.207031 144.664062 46.207031 Z M 143.082031 40.261719 C 142.035156 40.261719 141.214844 41.078125 141.214844 42.070312 C 141.214844 43.0625 142.035156 43.878906 143.082031 43.878906 C 144.132812 43.878906 144.953125 43.0625 144.953125 42.070312 C 144.953125 41.078125 144.132812 40.261719 143.082031 40.261719 Z M 143.082031 39.734375 C 144.425781 39.734375 145.539062 40.78125 145.539062 42.0625 C 145.539062 43.347656 144.425781 44.394531 143.082031 44.394531 C 141.742188 44.394531 140.628906 43.347656 140.628906 42.0625 C 140.6875 40.78125 141.742188 39.734375 143.082031 39.734375 Z M 140.277344 34.550781 C 139.226562 34.550781 138.40625 35.371094 138.40625 36.359375 C 138.40625 37.351562 139.28125 38.167969 140.277344 38.167969 C 141.324219 38.167969 142.144531 37.351562 142.144531 36.359375 C 142.144531 35.371094 141.324219 34.550781 140.277344 34.550781 Z M 140.277344 34.027344 C 141.617188 34.027344 142.730469 35.074219 142.730469 36.355469 C 142.730469 37.636719 141.617188 38.683594 140.277344 38.683594 C 138.933594 38.683594 137.820312 37.636719 137.820312 36.355469 C 137.820312 35.074219 138.933594 34.027344 140.277344 34.027344 Z M 135.769531 29.480469 C 134.71875 29.480469 133.902344 30.296875 133.902344 31.289062 C 133.902344 32.28125 134.71875 33.097656 135.769531 33.097656 C 136.820312 33.097656 137.640625 32.28125 137.640625 31.289062 C 137.640625 30.296875 136.820312 29.480469 135.769531 29.480469 Z M 135.769531 28.953125 C 137.113281 28.953125 138.226562 30 138.226562 31.285156 C 138.226562 32.566406 137.175781 33.625 135.769531 33.625 C 134.429688 33.625 133.316406 32.578125 133.316406 31.292969 C 133.371094 30.011719 134.429688 28.964844 135.769531 28.964844 Z M 130.273438 25.636719 C 129.222656 25.636719 128.402344 26.453125 128.402344 27.445312 C 128.402344 28.433594 129.222656 29.25 130.273438 29.25 C 131.320312 29.25 132.140625 28.433594 132.140625 27.445312 C 132.140625 26.453125 131.320312 25.636719 130.273438 25.636719 Z M 130.273438 25.109375 C 131.613281 25.109375 132.726562 26.15625 132.726562 27.4375 C 132.726562 28.71875 131.613281 29.765625 130.273438 29.765625 C 128.929688 29.765625 127.816406 28.71875 127.816406 27.4375 C 127.816406 26.15625 128.929688 25.109375 130.273438 25.109375 Z M 124.308594 23.363281 C 123.257812 23.363281 122.4375 24.179688 122.4375 25.171875 C 122.4375 26.160156 123.257812 26.980469 124.308594 26.980469 C 125.355469 26.980469 126.175781 26.160156 126.175781 25.171875 C 126.234375 24.179688 125.355469 23.363281 124.308594 23.363281 Z M 124.308594 22.835938 C 125.648438 22.835938 126.761719 23.882812 126.761719 25.164062 C 126.761719 26.445312 125.648438 27.492188 124.308594 27.492188 C 122.964844 27.492188 121.851562 26.445312 121.851562 25.164062 C 121.910156 23.882812 122.964844 22.835938 124.308594 22.835938 Z M 118.285156 23.882812 C 117.234375 23.882812 116.414062 24.699219 116.414062 25.691406 C 116.414062 26.683594 117.234375 27.5 118.285156 27.5 C 119.335938 27.5 120.15625 26.683594 120.15625 25.691406 C 120.15625 24.699219 119.335938 23.882812 118.285156 23.882812 Z M 118.285156 23.355469 C 119.628906 23.355469 120.738281 24.402344 120.738281 25.6875 C 120.738281 26.96875 119.632812 28.027344 118.285156 28.027344 C 116.9375 28.027344 115.832031 26.980469 115.832031 25.695312 C 115.832031 24.414062 116.941406 23.367188 118.285156 23.367188 Z M 113.84375 18.929688 C 112.792969 18.929688 111.972656 19.746094 111.972656 20.738281 C 111.972656 21.726562 112.792969 22.546875 113.84375 22.546875 C 114.894531 22.546875 115.714844 21.726562 115.714844 20.738281 C 115.769531 19.746094 114.894531 18.929688 113.84375 18.929688 Z M 113.84375 18.464844 C 115.183594 18.464844 116.296875 19.511719 116.296875 20.792969 C 116.296875 22.074219 115.183594 23.121094 113.84375 23.121094 C 112.5 23.121094 111.386719 22.074219 111.386719 20.792969 C 111.445312 19.511719 112.5 18.464844 113.84375 18.464844 Z M 108.050781 15.257812 C 107 15.257812 106.179688 16.074219 106.179688 17.066406 C 106.179688 18.054688 107 18.875 108.050781 18.875 C 109.101562 18.875 109.921875 18.054688 109.921875 17.066406 C 109.921875 16.074219 109.101562 15.257812 108.050781 15.257812 Z M 108.050781 14.730469 C 109.394531 14.730469 110.507812 15.777344 110.507812 17.058594 C 110.507812 18.34375 109.394531 19.386719 108.050781 19.386719 C 106.710938 19.386719 105.597656 18.34375 105.597656 17.058594 C 105.652344 15.777344 106.710938 14.730469 108.050781 14.730469 Z M 102.03125 13.101562 C 100.980469 13.101562 100.160156 13.917969 100.160156 14.910156 C 100.160156 15.902344 100.980469 16.71875 102.03125 16.71875 C 103.082031 16.71875 103.902344 15.902344 103.902344 14.910156 C 103.957031 13.917969 103.082031 13.101562 102.03125 13.101562 Z M 102.03125 12.578125 C 103.371094 12.578125 104.484375 13.625 104.484375 14.90625 C 104.484375 16.1875 103.371094 17.234375 102.03125 17.234375 C 100.6875 17.234375 99.574219 16.1875 99.574219 14.90625 C 99.632812 13.625 100.6875 12.578125 102.03125 12.578125 Z M 95.890625 12.050781 C 94.839844 12.050781 94.019531 12.867188 94.019531 13.859375 C 94.019531 14.847656 94.839844 15.667969 95.890625 15.667969 C 96.941406 15.667969 97.761719 14.847656 97.761719 13.859375 C 97.761719 12.867188 96.941406 12.050781 95.890625 12.050781 Z M 95.890625 11.523438 C 97.234375 11.523438 98.34375 12.570312 98.34375 13.851562 C 98.34375 15.132812 97.234375 16.179688 95.890625 16.179688 C 95.261719 16.191406 94.65625 15.953125 94.207031 15.515625 C 93.753906 15.078125 93.5 14.480469 93.492188 13.851562 C 93.4375 12.570312 94.542969 11.523438 95.890625 11.523438 Z M 37.480469 59.886719 C 39.117188 59.011719 39.707031 57.03125 38.824219 55.460938 C 37.878906 53.867188 35.839844 53.300781 34.207031 54.175781 C 32.570312 55.050781 31.980469 57.03125 32.863281 58.605469 C 33.746094 60.179688 35.847656 60.761719 37.480469 59.886719 Z M 37.71875 60.351562 C 35.785156 61.34375 33.449219 60.699219 32.398438 58.835938 C 31.894531 57.953125 31.78125 56.902344 32.078125 55.933594 C 32.378906 54.960938 33.0625 54.15625 33.976562 53.707031 C 35.910156 52.714844 38.300781 53.359375 39.296875 55.222656 C 39.796875 56.105469 39.910156 57.15625 39.613281 58.125 C 39.3125 59.09375 38.628906 59.898438 37.71875 60.351562 Z M 61.691406 48.816406 C 63.503906 48.351562 64.609375 46.597656 64.144531 44.851562 C 63.679688 43.105469 61.808594 42.054688 59.992188 42.523438 C 58.179688 42.992188 57.074219 44.738281 57.539062 46.484375 C 58.066406 48.25 59.902344 49.28125 61.691406 48.816406 Z M 61.863281 49.339844 C 59.785156 49.886719 57.648438 48.667969 57.066406 46.605469 C 56.8125 45.613281 56.972656 44.5625 57.515625 43.695312 C 58.054688 42.824219 58.929688 42.214844 59.933594 42.003906 C 62.039062 41.476562 64.199219 42.703125 64.730469 44.738281 C 65.257812 46.777344 63.96875 48.820312 61.863281 49.339844 Z M 89.871094 45.394531 C 91.738281 45.394531 93.261719 43.9375 93.261719 42.132812 C 93.246094 41.25 92.882812 40.410156 92.246094 39.796875 C 91.609375 39.1875 90.753906 38.851562 89.871094 38.867188 C 88.984375 38.851562 88.128906 39.1875 87.496094 39.796875 C 86.859375 40.410156 86.492188 41.25 86.476562 42.132812 C 86.476562 43.9375 88 45.394531 89.871094 45.394531 Z M 89.871094 45.921875 C 87.738281 45.953125 85.984375 44.253906 85.953125 42.132812 C 85.953125 40.03125 87.707031 38.34375 89.871094 38.34375 C 92.03125 38.34375 93.785156 40.03125 93.785156 42.132812 C 93.839844 44.230469 92.03125 45.921875 89.871094 45.921875 Z M 56.949219 39.746094 C 58 39.746094 58.820312 38.929688 58.820312 37.9375 C 58.820312 36.949219 58 36.128906 56.949219 36.128906 C 55.898438 36.128906 55.078125 36.949219 55.078125 37.9375 C 55.023438 38.929688 55.898438 39.746094 56.949219 39.746094 Z M 56.949219 40.273438 C 56.320312 40.285156 55.714844 40.042969 55.265625 39.605469 C 54.8125 39.167969 54.558594 38.570312 54.550781 37.945312 C 54.550781 36.664062 55.664062 35.617188 56.949219 35.617188 C 58.292969 35.617188 59.402344 36.664062 59.402344 37.945312 C 59.347656 39.226562 58.292969 40.273438 56.949219 40.273438 Z M 58.527344 33.21875 C 59.578125 33.21875 60.398438 32.402344 60.398438 31.414062 C 60.398438 30.421875 59.578125 29.605469 58.527344 29.605469 C 57.476562 29.605469 56.65625 30.421875 56.65625 31.414062 C 56.601562 32.402344 57.476562 33.21875 58.527344 33.21875 Z M 58.527344 33.746094 C 57.183594 33.746094 56.074219 32.699219 56.074219 31.417969 C 56.074219 30.136719 57.183594 29.089844 58.527344 29.089844 C 59.871094 29.089844 60.980469 30.136719 60.980469 31.417969 C 60.925781 32.699219 59.8125 33.746094 58.527344 33.746094 Z M 35.082031 50.40625 C 36.132812 50.40625 36.953125 49.585938 36.953125 48.597656 C 36.953125 47.605469 36.132812 46.789062 35.082031 46.789062 C 34.03125 46.789062 33.210938 47.605469 33.210938 48.597656 C 33.210938 49.585938 34.03125 50.40625 35.082031 50.40625 Z M 35.082031 50.929688 C 33.742188 50.929688 32.628906 49.882812 32.628906 48.601562 C 32.628906 47.320312 33.742188 46.273438 35.082031 46.273438 C 35.710938 46.261719 36.316406 46.503906 36.769531 46.941406 C 37.21875 47.378906 37.476562 47.976562 37.480469 48.601562 C 37.539062 49.882812 36.429688 50.929688 35.082031 50.929688 Z M 36.660156 43.878906 C 37.710938 43.878906 38.53125 43.0625 38.53125 42.070312 C 38.5 41.0625 37.671875 40.261719 36.660156 40.261719 C 35.609375 40.261719 34.789062 41.078125 34.789062 42.070312 C 34.789062 43.0625 35.609375 43.878906 36.660156 43.878906 Z M 36.660156 44.402344 C 35.320312 44.402344 34.207031 43.355469 34.207031 42.074219 C 34.207031 40.792969 35.320312 39.746094 36.660156 39.746094 C 38.003906 39.746094 39.117188 40.792969 39.117188 42.074219 C 39.117188 43.355469 38.003906 44.402344 36.660156 44.402344 Z M 39.46875 38.167969 C 40.519531 38.167969 41.339844 37.351562 41.339844 36.359375 C 41.339844 35.371094 40.519531 34.550781 39.46875 34.550781 C 38.417969 34.550781 37.597656 35.371094 37.597656 36.359375 C 37.597656 37.351562 38.476562 38.167969 39.46875 38.167969 Z M 39.46875 38.695312 C 38.128906 38.695312 37.015625 37.648438 37.015625 36.367188 C 37.015625 35.085938 38.128906 34.039062 39.46875 34.039062 C 40.8125 34.039062 41.925781 35.085938 41.925781 36.367188 C 41.925781 37.648438 40.8125 38.695312 39.46875 38.695312 Z M 43.972656 33.101562 C 45.023438 33.101562 45.84375 32.285156 45.84375 31.292969 C 45.84375 30.304688 45.023438 29.488281 43.972656 29.488281 C 42.925781 29.488281 42.105469 30.304688 42.105469 31.292969 C 42.105469 32.285156 42.925781 33.101562 43.972656 33.101562 Z M 43.972656 33.628906 C 42.632812 33.628906 41.519531 32.582031 41.519531 31.300781 C 41.519531 30.019531 42.632812 28.972656 43.972656 28.972656 C 45.316406 28.972656 46.429688 30.019531 46.429688 31.300781 C 46.429688 32.582031 45.316406 33.625 43.96875 33.625 Z M 49.472656 29.257812 C 50.523438 29.257812 51.34375 28.441406 51.34375 27.449219 C 51.34375 26.457031 50.523438 25.640625 49.472656 25.640625 C 48.421875 25.640625 47.601562 26.457031 47.601562 27.449219 C 47.601562 28.441406 48.480469 29.257812 49.472656 29.257812 Z M 49.472656 29.785156 C 48.132812 29.785156 47.019531 28.738281 47.019531 27.453125 C 47.019531 26.171875 48.132812 25.125 49.472656 25.125 C 50.816406 25.125 51.929688 26.171875 51.929688 27.453125 C 51.929688 28.738281 50.816406 29.785156 49.472656 29.785156 Z M 55.4375 27.046875 C 56.488281 27.046875 57.308594 26.230469 57.308594 25.238281 C 57.308594 24.246094 56.488281 23.429688 55.4375 23.429688 C 54.386719 23.429688 53.566406 24.246094 53.566406 25.238281 C 53.566406 26.230469 54.386719 27.046875 55.4375 27.046875 Z M 55.4375 27.570312 C 54.097656 27.570312 52.984375 26.527344 52.984375 25.242188 C 52.984375 23.960938 54.097656 22.914062 55.4375 22.914062 C 56.78125 22.914062 57.894531 23.960938 57.894531 25.242188 C 57.835938 26.527344 56.78125 27.570312 55.4375 27.570312 Z M 61.460938 27.515625 C 62.511719 27.515625 63.332031 26.699219 63.332031 25.707031 C 63.332031 24.71875 62.511719 23.898438 61.460938 23.898438 C 60.410156 23.898438 59.589844 24.71875 59.589844 25.707031 C 59.589844 26.699219 60.410156 27.515625 61.460938 27.515625 Z M 61.460938 28.042969 C 60.117188 28.042969 59.003906 26.996094 59.003906 25.714844 C 59.003906 24.433594 60.117188 23.386719 61.460938 23.386719 C 62.800781 23.386719 63.914062 24.433594 63.914062 25.714844 C 63.914062 26.996094 62.796875 28.027344 61.453125 28.027344 Z M 65.902344 22.625 C 66.953125 22.625 67.773438 21.808594 67.773438 20.816406 C 67.773438 19.824219 66.953125 19.007812 65.902344 19.007812 C 64.851562 19.007812 64.03125 19.824219 64.03125 20.816406 C 64.03125 21.808594 64.851562 22.625 65.902344 22.625 Z M 65.902344 23.148438 C 64.558594 23.148438 63.449219 22.101562 63.449219 20.820312 C 63.449219 19.539062 64.558594 18.492188 65.902344 18.492188 C 67.246094 18.492188 68.355469 19.539062 68.355469 20.820312 C 68.355469 22.101562 67.246094 23.148438 65.902344 23.148438 Z M 71.695312 18.894531 C 72.742188 18.894531 73.5625 18.078125 73.5625 17.089844 C 73.5625 16.097656 72.742188 15.28125 71.695312 15.28125 C 70.644531 15.28125 69.824219 16.097656 69.824219 17.089844 C 69.824219 18.078125 70.644531 18.894531 71.695312 18.894531 Z M 71.695312 19.421875 C 70.351562 19.421875 69.238281 18.375 69.238281 17.09375 C 69.238281 15.8125 70.351562 14.765625 71.695312 14.765625 C 73.035156 14.765625 74.148438 15.8125 74.148438 17.09375 C 74.148438 18.375 73.035156 19.421875 71.695312 19.421875 Z M 77.714844 16.742188 C 78.765625 16.742188 79.585938 15.921875 79.585938 14.933594 C 79.585938 13.941406 78.765625 13.125 77.714844 13.125 C 76.664062 13.125 75.84375 13.941406 75.84375 14.933594 C 75.84375 15.921875 76.664062 16.742188 77.714844 16.742188 Z M 77.714844 17.265625 C 76.371094 17.265625 75.261719 16.21875 75.261719 14.9375 C 75.261719 13.65625 76.371094 12.609375 77.714844 12.609375 C 79.058594 12.609375 80.167969 13.65625 80.167969 14.9375 C 80.167969 16.21875 79.058594 17.265625 77.714844 17.265625 Z M 89.871094 34.550781 C 90.921875 34.550781 91.738281 33.734375 91.738281 32.746094 C 91.738281 31.753906 90.921875 30.9375 89.871094 30.9375 C 88.820312 30.9375 88 31.753906 88 32.746094 C 88 33.734375 88.820312 34.550781 89.871094 34.550781 Z M 89.871094 35.078125 C 88.527344 35.078125 87.414062 34.03125 87.414062 32.75 C 87.414062 31.46875 88.527344 30.421875 89.871094 30.421875 C 91.210938 30.421875 92.324219 31.46875 92.324219 32.75 C 92.324219 34.03125 91.210938 35.078125 89.871094 35.078125 Z M 89.871094 27.96875 C 90.921875 27.96875 91.738281 27.152344 91.738281 26.160156 C 91.738281 25.171875 90.921875 24.355469 89.871094 24.355469 C 88.820312 24.355469 88 25.171875 88 26.160156 C 88 27.152344 88.820312 27.96875 89.871094 27.96875 Z M 89.871094 28.496094 C 88.527344 28.496094 87.414062 27.449219 87.414062 26.167969 C 87.414062 24.886719 88.527344 23.839844 89.871094 23.839844 C 91.210938 23.839844 92.324219 24.886719 92.324219 26.167969 C 92.324219 27.449219 91.210938 28.496094 89.871094 28.496094 Z M 89.871094 21.386719 C 90.921875 21.386719 91.738281 20.570312 91.738281 19.578125 C 91.738281 18.589844 90.921875 17.769531 89.871094 17.769531 C 88.820312 17.769531 88 18.589844 88 19.578125 C 88 20.570312 88.820312 21.386719 89.871094 21.386719 Z M 89.871094 21.851562 C 88.527344 21.851562 87.414062 20.804688 87.414062 19.523438 C 87.414062 18.242188 88.527344 17.195312 89.871094 17.195312 C 91.210938 17.195312 92.324219 18.242188 92.324219 19.523438 C 92.324219 20.859375 91.210938 21.851562 89.871094 21.851562 Z M 83.90625 15.675781 C 84.953125 15.675781 85.773438 14.859375 85.773438 13.871094 C 85.746094 12.863281 84.917969 12.0625 83.90625 12.0625 C 82.855469 12.0625 81.972656 12.878906 81.972656 13.871094 C 81.972656 14.917969 82.847656 15.675781 83.90625 15.675781 Z M 83.90625 16.257812 C 82.5625 16.257812 81.449219 15.210938 81.449219 13.929688 C 81.449219 12.648438 82.5625 11.601562 83.90625 11.601562 C 85.246094 11.601562 86.359375 12.648438 86.359375 13.929688 C 86.304688 15.210938 85.246094 16.257812 83.90625 16.257812 Z M 145.53125 54.1875 C 143.898438 53.320312 141.867188 53.886719 140.914062 55.46875 C 140.039062 57.042969 140.625 59.023438 142.257812 59.898438 C 143.894531 60.761719 145.921875 60.199219 146.875 58.617188 C 147.328125 57.859375 147.4375 56.949219 147.183594 56.109375 C 146.925781 55.265625 146.328125 54.570312 145.53125 54.1875 Z M 145.824219 53.722656 C 147.757812 54.714844 148.398438 57.042969 147.347656 58.851562 C 146.253906 60.714844 143.878906 61.386719 141.964844 60.367188 C 141.058594 59.910156 140.382812 59.101562 140.09375 58.132812 C 139.804688 57.160156 139.933594 56.117188 140.445312 55.242188 C 141.539062 53.375 143.914062 52.707031 145.824219 53.722656 Z M 42.273438 55.003906 C 41.746094 53.722656 41.105469 52.734375 39.699219 52.324219 C 40.636719 41.078125 43.613281 35.953125 54.203125 30.824219 C 55.140625 31.171875 55.078125 31.289062 55.078125 31.40625 C 55.078125 32.921875 55.957031 33.679688 57.066406 34.496094 C 55.195312 34.90625 53.5 35.722656 53.5 37.933594 C 53.5 39.742188 54.785156 40.730469 56.421875 41.195312 C 55.894531 42.1875 55.777344 42.597656 55.894531 43.761719 C 53.730469 44.75 53.265625 46.089844 53.785156 48.1875 C 54.605469 51.160156 56.476562 51.507812 59.460938 50.75 C 59.789062 52.65625 58.753906 54.539062 56.960938 55.277344 C 55.167969 56.019531 53.097656 55.421875 51.976562 53.839844 C 51.976562 53.550781 51.921875 53.316406 51.859375 53.023438 C 51.394531 51.332031 49.523438 50.285156 47.648438 50.695312 C 45.832031 51.160156 44.664062 52.96875 45.132812 54.714844 C 45.304688 55.296875 45.597656 55.761719 46.007812 56.171875 C 46.183594 57.859375 45.421875 59.378906 43.902344 60.1875 C 42.324219 61.007812 41.09375 60.652344 39.578125 60.132812 C 42.09375 58.96875 43.378906 57.859375 42.265625 55.003906 Z M 42.445312 42.824219 C 41.394531 45.332031 40.867188 48.242188 40.515625 51.796875 C 41.746094 52.324219 42.558594 53.542969 43.03125 54.769531 C 43.789062 56.632812 43.789062 58.558594 41.6875 60.015625 C 42.320312 60.085938 42.960938 59.941406 43.503906 59.605469 C 44.671875 58.964844 45.316406 57.800781 45.253906 56.578125 C 44.851562 56.101562 44.550781 55.546875 44.378906 54.949219 C 43.792969 52.734375 45.199219 50.523438 47.417969 49.996094 C 49.652344 49.429688 51.941406 50.710938 52.617188 52.90625 C 52.675781 53.140625 52.738281 53.371094 52.738281 53.605469 C 54.667969 55.878906 58.527344 54.714844 58.703125 51.742188 C 55.136719 52.441406 53.613281 50.695312 53.027344 48.363281 C 52.5 46.4375 52.738281 44.460938 55.015625 43.289062 C 54.996094 42.738281 55.078125 42.1875 55.253906 41.660156 C 53.988281 41.140625 53.070312 40.023438 52.796875 38.6875 C 50.753906 39.097656 48.472656 39.679688 46.601562 40.433594 C 44.789062 41.078125 43.445312 42.007812 42.453125 42.824219 Z M 54.257812 31.640625 C 48.355469 34.613281 44.902344 37.640625 42.855469 41.839844 C 43.933594 41.058594 45.117188 40.433594 46.367188 39.976562 C 48.300781 39.21875 50.636719 38.636719 52.679688 38.230469 L 52.679688 37.933594 C 52.679688 36.242188 53.792969 34.726562 55.308594 34.144531 C 54.683594 33.453125 54.3125 32.566406 54.257812 31.636719 Z M 135.828125 60.25 C 134.359375 59.472656 133.523438 57.875 133.71875 56.230469 C 134.128906 55.824219 134.421875 55.359375 134.597656 54.777344 C 134.808594 53.917969 134.667969 53.011719 134.207031 52.257812 C 133.746094 51.503906 133.003906 50.964844 132.140625 50.757812 C 131.128906 50.492188 130.046875 50.699219 129.207031 51.324219 C 128.363281 51.949219 127.851562 52.917969 127.816406 53.964844 C 125.1875 57.285156 119.863281 55.539062 120.335938 50.875 C 123.316406 51.574219 125.1875 51.285156 126.007812 48.3125 C 126.59375 46.210938 126.066406 44.875 123.964844 43.882812 C 124.09375 42.992188 123.90625 42.085938 123.4375 41.320312 C 125.070312 40.855469 126.355469 39.863281 126.355469 38.054688 C 126.355469 35.839844 124.660156 35.027344 122.789062 34.675781 C 123.902344 33.800781 124.835938 33.101562 124.835938 31.585938 C 124.835938 31.46875 124.835938 31.292969 124.777344 31.175781 L 125.535156 30.941406 C 136.0625 36.011719 139.277344 41.3125 140.214844 52.441406 C 138.753906 52.851562 138.109375 53.839844 137.640625 55.125 C 136.527344 57.976562 137.816406 59.085938 140.332031 60.304688 C 138.636719 60.714844 137.410156 61.0625 135.828125 60.25 Z M 126.996094 38.6875 C 126.707031 40.027344 125.765625 41.136719 124.480469 41.660156 C 124.679688 42.179688 124.761719 42.738281 124.71875 43.289062 C 127.054688 44.453125 127.234375 46.4375 126.707031 48.363281 C 126.058594 50.691406 124.597656 52.441406 121.03125 51.742188 C 121.207031 54.714844 125.066406 55.878906 126.996094 53.605469 C 126.996094 53.371094 127.054688 53.140625 127.113281 52.90625 C 127.699219 50.75 130.035156 49.410156 132.261719 49.996094 C 134.539062 50.578125 135.882812 52.792969 135.300781 54.949219 C 135.125 55.53125 134.832031 56.113281 134.421875 56.523438 C 134.382812 57.46875 134.746094 58.382812 135.429688 59.042969 C 136.113281 59.699219 137.042969 60.03125 137.988281 59.960938 C 135.882812 58.558594 135.882812 56.640625 136.648438 54.714844 C 137.113281 53.488281 137.878906 52.269531 139.164062 51.742188 C 138.871094 48.1875 138.289062 45.277344 137.230469 42.769531 C 135.992188 41.746094 134.589844 40.9375 133.082031 40.378906 C 131.328125 39.734375 128.984375 39.152344 126.996094 38.6875 Z M 125.476562 31.523438 C 125.417969 32.515625 125.007812 33.449219 124.363281 34.085938 C 125.972656 34.65625 127.050781 36.175781 127.054688 37.878906 L 127.054688 38.167969 C 129.160156 38.632812 131.378906 39.160156 133.367188 39.914062 C 134.769531 40.441406 135.9375 41.078125 136.878906 41.777344 C 134.832031 37.640625 131.378906 34.613281 125.476562 31.523438 Z M 113.195312 66.605469 L 107.230469 62.585938 L 114.484375 61.828125 L 120.449219 65.847656 Z M 101.96875 64.273438 C 101.339844 64.285156 100.734375 64.046875 100.28125 63.609375 C 99.832031 63.171875 99.574219 62.574219 99.570312 61.945312 C 99.570312 60.664062 100.683594 59.617188 101.96875 59.617188 C 103.3125 59.617188 104.421875 60.664062 104.421875 61.945312 C 104.421875 63.230469 103.3125 64.273438 101.96875 64.273438 Z M 101.96875 63.75 C 103.019531 63.75 103.839844 62.933594 103.839844 61.941406 C 103.839844 60.949219 103.019531 60.132812 101.96875 60.132812 C 100.917969 60.132812 100.097656 60.949219 100.097656 61.941406 C 100.097656 62.933594 100.972656 63.75 101.96875 63.75 Z M 54.371094 69.8125 C 55.421875 69.8125 56.242188 68.992188 56.242188 68.003906 C 56.242188 67.011719 55.421875 66.195312 54.371094 66.195312 C 53.320312 66.195312 52.5 67.011719 52.5 68.003906 C 52.5 68.992188 53.320312 69.8125 54.371094 69.8125 Z M 54.371094 70.335938 C 53.027344 70.335938 51.917969 69.289062 51.917969 68.007812 C 51.917969 66.726562 53.027344 65.679688 54.371094 65.679688 C 55.714844 65.679688 56.824219 66.726562 56.824219 68.007812 C 56.769531 69.289062 55.714844 70.335938 54.371094 70.335938 Z M 77.761719 63.753906 C 78.808594 63.753906 79.628906 62.9375 79.628906 61.945312 C 79.601562 60.9375 78.769531 60.136719 77.761719 60.140625 C 76.710938 60.140625 75.890625 60.957031 75.890625 61.945312 C 75.832031 62.9375 76.710938 63.753906 77.761719 63.753906 Z M 77.761719 64.28125 C 76.417969 64.28125 75.304688 63.234375 75.304688 61.953125 C 75.304688 60.671875 76.417969 59.625 77.761719 59.625 C 79.101562 59.625 80.214844 60.671875 80.214844 61.953125 C 80.160156 63.234375 79.101562 64.28125 77.761719 64.28125 Z M 125.355469 69.816406 C 126.40625 69.816406 127.226562 69 127.226562 68.007812 C 127.226562 67.019531 126.40625 66.199219 125.355469 66.199219 C 124.308594 66.199219 123.488281 67.019531 123.488281 68.007812 C 123.488281 69 124.308594 69.816406 125.355469 69.816406 Z M 125.355469 70.34375 C 124.015625 70.34375 122.902344 69.296875 122.902344 68.015625 C 122.902344 66.734375 124.015625 65.6875 125.355469 65.6875 C 126.699219 65.6875 127.8125 66.734375 127.8125 68.015625 C 127.8125 69.296875 126.699219 70.34375 125.355469 70.34375 Z M 66.539062 66.613281 L 59.285156 65.859375 L 65.25 61.839844 L 72.503906 62.597656 Z M 95.945312 61.3125 L 89.871094 59.140625 L 83.847656 61.296875 L 89.871094 63.457031 Z M 97.46875 61.3125 L 89.871094 64.039062 L 82.269531 61.304688 L 89.871094 58.558594 Z M 97.46875 61.3125 "/>
</g>
</svg>
